<?xml version="1.0" standalone="no"?><!DOCTYPE svg PUBLIC "-//W3C//DTD SVG 1.1//EN" "http://www.w3.org/Graphics/SVG/1.1/DTD/svg11.dtd"><svg t="1529549470928" class="icon" style="" viewBox="0 0 1024 1024" version="1.1" xmlns="http://www.w3.org/2000/svg" p-id="7440" xmlns:xlink="http://www.w3.org/1999/xlink" width="24" height="24"><defs><style type="text/css"></style></defs><path d="M939.4 85.2c-68.8-68.4-174-83.2-266-34.2-47.2 25.2-94.4 80.8-108.8 104.2-14.4 23.4-24.6 53.2-29.6 81.2-2.8 13.6-1.4 27.6 4 39.8 0.6 1.8 1.6 3.6 2.4 5.4 4.2 8.6 8.4 17 13.6 25.8 17.2 29 43.8 62.2 71 89.8l1.4 1.4 2.6 2.6 0.2-0.2c27.6 27.2 56.6 50 85.8 67 8.8 5.2 17.4 9.6 26 13.8 1.8 1 3.6 1.6 5.2 2.2 12.4 5.2 26.2 6.6 39.8 4 28-4.8 57.4-15.2 81.2-29.6 23.4-14.4 79-61.8 104.2-108.8 48.8-92 35.6-195.4-33-264.4zM685 491.8c-0.8-0.8-1.4-1.4-2.4-2-1.4-1-3.2-2-4.4-3-4.6-3.2-9.6-6.4-14.2-9.6-21-15-41.4-32.4-61.4-52-19.6-20-41.8-45.4-55.8-65.2-3.4-4.8-6.6-9.8-9.8-14.4-1-1.4-2-3.2-3-4.4-0.6-1-1.4-1.8-2-2.4-12-12-31.8-11.2-45.2 1.4-1.4 1.8-2.8 3.6-4.2 5-122 140.8-437.6 503.2-457 528.2 0 0-19.4 30.2 38.2 87.4 56.8 57.2 87.4 38.2 87.4 38.2C176 979.6 538.6 664 679.4 542c1.6-1.6 3.4-3 5-4.2 11.8-14.2 12.6-34.2 0.6-46zM470.2 592c-11.8 11.8-30 12.6-40.8 1.8s-10-29.2 1.8-40.8l64-64c11.8-11.8 30-12.6 40.8-1.8 10.8 10.8 10 29.2-1.8 40.8l-64 64z" fill="#ffffff" p-id="7441"></path></svg>