<?xml version="1.0" standalone="no"?><!DOCTYPE svg PUBLIC "-//W3C//DTD SVG 1.1//EN" "http://www.w3.org/Graphics/SVG/1.1/DTD/svg11.dtd"><svg t="1529549886568" class="icon" style="" viewBox="0 0 1024 1024" version="1.1" xmlns="http://www.w3.org/2000/svg" p-id="15844" xmlns:xlink="http://www.w3.org/1999/xlink" width="24" height="24"><defs><style type="text/css"></style></defs><path d="M714.752 419.328v7.168c0 67.072-35.328 125.952-87.04 158.72 20.992 30.72 35.84 71.68 41.984 117.248h22.016c6.656 0 12.8-2.56 13.824-9.216 1.536-24.064-19.968-80.384-42.496-100.352 46.08-13.824 78.848-66.048 78.848-103.936 0-27.136-11.776-52.224-27.136-69.632zM338.944 426.496v-7.68c-15.872 17.408-27.648 42.496-27.648 70.656 0 37.888 33.28 89.6 78.848 103.936-22.528 19.968-44.032 76.288-42.496 100.352 1.024 6.656 6.656 9.216 13.824 9.216h23.552c6.144-45.568 20.992-86.528 41.984-117.248-52.736-33.28-88.064-91.648-88.064-159.232z" fill="#ffffff" p-id="15845"></path><path d="M684.544 421.888c0-62.464-54.784-152.064-158.208-152.064-100.864 0-156.672 76.8-156.672 152.064 0 72.192 48.128 124.416 102.912 150.528-25.6 30.208-47.616 77.312-54.784 140.288-1.024 8.192 4.608 11.264 14.336 11.264h189.44c10.24 0 14.848-1.536 14.336-11.264-8.192-61.952-29.696-110.592-54.784-140.288 56.832-26.624 103.424-85.504 103.424-150.528z m-242.688 45.056c-6.656-19.456 23.552-27.648 29.696-8.704 14.336 43.52 94.72 43.52 109.568 0 5.632-18.944 36.352-10.752 29.696 8.704-25.088 73.216-144.896 73.216-168.96 0z" fill="#ffffff" p-id="15846"></path><path d="M526.336 51.2c-246.272 0-445.44 199.68-445.44 445.44 0 246.272 199.68 445.44 445.44 445.44 246.272 0 445.44-199.68 445.44-445.44 0.512-246.272-199.168-445.44-445.44-445.44z m214.016 665.6c-1.536 9.216-9.728 16.896-19.968 16.896h-48.128c-2.56 12.288-13.312 21.504-26.624 21.504H409.088c-13.312 0-24.064-9.728-26.624-21.504H332.8c-10.24 0-18.432-7.168-19.968-16.896 1.536-42.496 13.824-81.408 33.28-109.056-39.424-24.064-65.024-68.608-65.024-117.76 0-50.176 26.624-94.208 66.56-118.784 24.064-76.288 95.232-132.096 179.2-132.096 84.48 0 155.648 55.808 179.712 132.096 39.424 24.576 66.048 68.608 66.048 118.784 0 49.664-26.112 93.696-65.024 117.76 18.432 27.648 30.72 66.048 32.768 109.056z" fill="#ffffff" p-id="15847"></path></svg>