<?xml version="1.0" standalone="no"?><!DOCTYPE svg PUBLIC "-//W3C//DTD SVG 1.1//EN" "http://www.w3.org/Graphics/SVG/1.1/DTD/svg11.dtd"><svg t="1529549489253" class="icon" style="" viewBox="0 0 1024 1024" version="1.1" xmlns="http://www.w3.org/2000/svg" p-id="7666" xmlns:xlink="http://www.w3.org/1999/xlink" width="24" height="24"><defs><style type="text/css"></style></defs><path d="M939.6 325L848 233.6l-144 133v488.6h268.8V201.4zM460 493.8l-82.4-53v414.4h268.8V419.8l-69.4 64c-17.6 16.4-41 25.4-65 25.4-18.4-0.2-36.2-5.4-52-15.4zM320 403.8L252 360 51.2 534.8v320.4H320zM51.2 921.8h921.6v96H51.2z" fill="#ffffff" p-id="7667"></path><path d="M115 413.2l132-115.4 244.4 157.2c6.4 4 13.6 6 20.8 6 9.4 0 18.8-3.4 26-10.2L849.8 163.2l60 60.2L968 6.2 750.8 64.4l44.4 44.6-287.4 265.4L264 217.6c-14.4-9.2-33.2-7.8-46.2 3.4l-153.6 134.4c-15.8 14-17.6 38.2-3.6 54.2 14.2 16 38.4 17.6 54.4 3.6z" fill="#ffffff" p-id="7668"></path></svg>