<?xml version="1.0" standalone="no"?><!DOCTYPE svg PUBLIC "-//W3C//DTD SVG 1.1//EN" "http://www.w3.org/Graphics/SVG/1.1/DTD/svg11.dtd"><svg t="1529549725900" class="icon" style="" viewBox="0 0 1025 1024" version="1.1" xmlns="http://www.w3.org/2000/svg" p-id="11079" xmlns:xlink="http://www.w3.org/1999/xlink" width="24.0234375" height="24"><defs><style type="text/css"></style></defs><path d="M824.351744 827.704698C883.910822 857.771814 867.667437 960 851.424051 960L17.596999 960C1.353615 960-20.30423 851.758387 39.254845 827.704698 223.346532 737.503354 379.263238 704.776499 290 627.835937 271.78125 612.132263 241.976563 587.726563 232.867187 564.117187 223.757812 540.507812 223.874504 541.213739 223.098957 539.060387 147.296497 515.006696 131.13351 432.84755 131.13351 390.75359 131.13351 348.659631 163.539882 310.55032 196.02665 304.536897 196.02665 286.496629 212.51761 250.416108 212.51761 238.389261 217.93207 166.228188 213.371624 184.268456 251.272854 64 289.174083 82.040268 337.250733 94.229567 356.008472 86.510216 383.080779 74.483371 407.438219 64 429.096065 64 488.65514 64 596.944367 100.080537 640.260058 220.348993 645.674522 250.416108 645.674522 274.469798 645.674522 304.536913 678.161286 310.550335 705.233594 346.630872 705.233594 382.711409 705.233594 424.805369 694.404672 521.020134 618.602213 539.060403 618.029674 541.6039 617.336052 544.147398 616.521347 546.698006 609.631436 568.268328 594.081674 590.347157 569.872061 617.234899 483.240678 719.463085 640.260058 731.489933 824.351744 827.704698ZM990.85367 773.008698C828.444602 688.170048 696.699059 682.487904 772.489958 585.529447 794.144499 561.289834 805.80361 508.895864 816.63088 484.65625 881.594509 466.47654 898.593459 397.468195 898.593459 361.108774 898.593459 324.749354 866.340051 294.276328 833.85824 288.216425 833.85824 263.976812 833.85824 233.677295 828.444602 209.437681 790.549152 94.299517 693.103712 64 638.967354 64 633.553718 64 693.236544 130.852504 709.477453 179.331731 720.043642 220.599759 709.477453 237.628606 709.477453 265.683293 741.959264 283.863004 772.489952 320.765364 772.489952 369.244591 772.489952 466.203046 767.937293 537.883799 702.973664 550.003606 686.732762 574.243219 673.399674 599.861348 646.331494 624.100961 619.263317 654.40048 597.608773 673.617958 646.331494 697.857574 662.572403 703.917478 814.128352 762.76279 868.26471 787.002406 900.746522 805.182112 913.658118 846.394381 919.07175 888.813702L1016.51719 888.813702C1016.51719 888.813702 1044.990029 803.308211 990.85367 773.008698Z" p-id="11080" fill="#ffffff"></path></svg>