<?xml version="1.0" standalone="no"?><!DOCTYPE svg PUBLIC "-//W3C//DTD SVG 1.1//EN" "http://www.w3.org/Graphics/SVG/1.1/DTD/svg11.dtd"><svg t="1529549325036" class="icon" style="" viewBox="0 0 1024 1024" version="1.1" xmlns="http://www.w3.org/2000/svg" p-id="5667" xmlns:xlink="http://www.w3.org/1999/xlink" width="24" height="24"><defs><style type="text/css"></style></defs><path d="M767.375 91.906h-126.375v210.375l-127.313-85.781-127.313 82.313v-206.906h-126.375c-92.813 0-168.844 76.031-168.844 168v503.906c0 92.812 76.031 168 168.844 168h507.375c92.813 0 168.844-76.031 168.844-168v-503.906c0.938-92.813-75.094-168-168.844-168zM678.969 543.687l-63.656 61.031c-4.406 4.406-6.187 8.813-4.406 15l15 84c1.781 15-12.375 25.594-25.594 16.781l-77.813-40.688c-4.406-1.781-10.594-1.781-16.781 0l-78.656 42.469c-12.375 6.188-27.375-4.406-25.594-16.781l15-84c0-6.188 0-10.594-4.406-15l-63.656-61.031c-10.594-10.594-4.406-27.375 8.813-29.156l86.625-12.375c6.187 0 10.594-4.406 12.375-8.813l37.969-77.813c6.188-12.375 25.594-12.375 31.781 0l37.969 77.813c1.781 4.406 8.813 8.813 12.375 8.813l86.625 12.375c20.438 0 24.938 16.781 16.031 27.375z" p-id="5668" fill="#ffffff"></path></svg>