<?xml version="1.0" standalone="no"?><!DOCTYPE svg PUBLIC "-//W3C//DTD SVG 1.1//EN" "http://www.w3.org/Graphics/SVG/1.1/DTD/svg11.dtd"><svg t="1529550035989" class="icon" style="" viewBox="0 0 1024 1024" version="1.1" xmlns="http://www.w3.org/2000/svg" p-id="21632" xmlns:xlink="http://www.w3.org/1999/xlink" width="24" height="24"><defs><style type="text/css"></style></defs><path d="M653.312 745.216l-299.52 0c-27.904 0-50.944 22.784-50.944 50.944l0 19.712L704 815.872 704 796.16C704 768.256 681.216 745.216 653.312 745.216z" p-id="21633" fill="#ffffff"></path><path d="M891.136 201.472c-17.92-19.712-42.752-32.256-70.4-32.256L186.112 169.216c-27.648 0-52.48 12.288-70.4 32.256-17.152 19.2-27.904 45.312-27.904 73.984l0 327.424c0 28.672 10.752 54.784 27.904 73.984 17.92 19.712 42.752 32.256 70.4 32.256l634.624 0c27.648 0 52.48-12.288 70.4-32.256 17.152-19.2 27.904-45.312 27.904-73.984L919.04 275.2C919.04 246.528 908.288 220.416 891.136 201.472zM747.52 557.056 259.328 557.056l0-27.904L747.52 529.152 747.52 557.056zM747.52 453.12 259.328 453.12 259.328 424.96 747.52 424.96 747.52 453.12zM747.52 348.928 259.328 348.928l0-27.904L747.52 321.024 747.52 348.928z" p-id="21634" fill="#ffffff"></path></svg>