<?xml version="1.0" standalone="no"?><!DOCTYPE svg PUBLIC "-//W3C//DTD SVG 1.1//EN" "http://www.w3.org/Graphics/SVG/1.1/DTD/svg11.dtd"><svg t="1529549380051" class="icon" style="" viewBox="0 0 1024 1024" version="1.1" xmlns="http://www.w3.org/2000/svg" p-id="5887" xmlns:xlink="http://www.w3.org/1999/xlink" width="24" height="24"><defs><style type="text/css"></style></defs><path d="M636.210862 490.671364l-2.898481 0c57.605765-30.873738 96.711681-90.697436 96.711681-159.454357 0-100.402426-83.301595-181.787417-186.045969-181.787417-96.751652 0-176.295882 72.250882-185.170686 164.525673-23.498397-35.006226-63.937736-58.205345-109.957778-58.205345-72.772567 0-131.637962 57.564768-131.637962 128.641089 0 44.178256 22.838347 83.140683 57.530946 106.280356l-3.157786 0c-40.582829 0-73.453116 32.128243-73.453116 71.772243l0 231.42441c0 39.623501 32.870287 71.752769 73.453116 71.752769L636.210862 865.620787c40.542857 0 73.446966-32.129268 73.446966-71.752769L709.657828 562.443607C709.657828 522.798583 676.752693 490.671364 636.210862 490.671364M322.061888 490.671364c27.595012-18.224146 47.953046-46.079488 55.267917-78.9467 17.063934 33.648203 44.676369 61.083327 78.365569 78.9467L322.061888 490.671364zM414.134769 331.215982c0-70.052423 58.126426-126.799303 129.802326-126.799303 71.691274 0 129.777728 56.74688 129.877145 126.799303-0.099417 70.057548-58.185871 126.843375-129.877145 126.843375C472.261195 458.059357 414.134769 401.274555 414.134769 331.215982M543.937095 231.532027c-56.390207 0.077894-101.908037 44.636397-102.06485 99.68498 0.156813 55.068057 45.674643 99.570189 102.06485 99.668582 56.303089-0.098393 101.944934-44.600524 101.984906-99.668582C645.88203 276.167399 600.239159 231.609921 543.937095 231.532027" p-id="5888" fill="#ffffff"></path><path d="M742.751548 636.614169 742.751548 734.983149 927.919159 829.734153 927.919159 533.388081Z" p-id="5889" fill="#ffffff"></path></svg>