<?xml version="1.0" standalone="no"?><!DOCTYPE svg PUBLIC "-//W3C//DTD SVG 1.1//EN" "http://www.w3.org/Graphics/SVG/1.1/DTD/svg11.dtd"><svg t="1529461312889" class="icon" style="" viewBox="0 0 1024 1024" version="1.1" xmlns="http://www.w3.org/2000/svg" p-id="62043" xmlns:xlink="http://www.w3.org/1999/xlink" width="16" height="16"><defs><style type="text/css"></style></defs><path d="M400.923694 116.053156c-39.949874 0-72.505337 32.528857-72.505337 72.465428 0 40.039925 32.55444 72.5432 72.505337 72.5432 39.98876 0 72.477708-32.502251 72.477708-72.5432C473.401402 148.582013 440.913477 116.053156 400.923694 116.053156zM400.923694 229.602282c-22.681582 0-41.045835-18.36323-41.045835-41.083697s18.364253-41.005926 41.045835-41.005926c22.667256 0 41.058115 18.286482 41.058115 41.005926S423.591973 229.602282 400.923694 229.602282zM749.985718 106.688881c-39.949874 0-72.492034 32.528857-72.492034 72.568782 0 39.937594 32.54216 72.465428 72.492034 72.465428 39.98876 0 72.51557-32.527834 72.51557-72.465428C822.502311 139.217738 789.974477 106.688881 749.985718 106.688881zM749.985718 220.264613c-22.655999 0-41.045835-18.416442-41.045835-41.006949 0-22.797215 18.390859-41.110303 41.045835-41.110303 22.705118 0 41.083697 18.313088 41.083697 41.110303C791.070438 201.848171 772.691859 220.264613 749.985718 220.264613zM749.985718 0c-87.296205 0-159.826102 62.500473-175.750793 145.1918C554.749128 67.24759 484.866524 9.338692 400.923694 9.338692c-98.94143 0-179.193195 80.238462-179.193195 179.180915 0 79.977519 52.730968 146.938584 125.053134 169.972183l0 74.264401L70.526775 373.359406l0 268.756023 276.256858-29.684066 0 89.420589 223.995587 0 0 204.6551L401.041374 906.507052l0 61.144592 419.385673 0 0-61.144592L645.44885 906.507052 645.44885 701.851952l201.612811 0L847.06166 329.561901c49.340755-31.980365 82.141812-87.228667 82.141812-150.304238C929.203472 80.238462 849.018222 0 749.985718 0zM446.078103 328.518129l-90.26891 0c-59.33027-19.147082-102.632495-74.29203-102.632495-139.999544 0-81.412195 66.25703-147.748019 147.746996-147.748019 81.477686 0 147.786904 66.335824 147.786904 147.748019C548.711622 254.227122 505.368464 309.371046 446.078103 328.518129zM511.55128 328.518129c32.985252-26.085098 56.879452-63.022359 65.175395-105.95824 10.968819 43.927465 37.71702 81.647555 74.420967 105.95824L511.55128 328.518129zM749.985718 327.005682c-81.464383 0-147.748019-66.334801-147.748019-147.748019 0-81.489966 66.282612-147.799184 147.748019-147.799184 81.503269 0 147.824767 66.309218 147.824767 147.799184C897.810484 260.670881 831.49001 327.005682 749.985718 327.005682z" p-id="62044" fill="#ffffff"></path></svg>