<?xml version="1.0" standalone="no"?><!DOCTYPE svg PUBLIC "-//W3C//DTD SVG 1.1//EN" "http://www.w3.org/Graphics/SVG/1.1/DTD/svg11.dtd"><svg t="1529461382752" class="icon" style="" viewBox="0 0 1024 1024" version="1.1" xmlns="http://www.w3.org/2000/svg" p-id="65045" xmlns:xlink="http://www.w3.org/1999/xlink" width="16" height="16"><defs><style type="text/css"></style></defs><path d="M832 64H183.6C134.8 64 92 111.4 92 165.4v542.9c0 57.5 45.2 83.3 90 83.3h120V960l195-153.6 16.9-14.8H842c44.8 0 90-25.8 90-83.3V165.4C932 113.3 883.4 64 832 64zM302 481.1c-18.6 11-41.4 11-60 0s-30-31.3-30-53.3c0-22 11.4-42.3 30-53.3s41.4-11 60 0 30 31.3 30 53.3c0 22-11.4 42.3-30 53.3z m210 8.3c-33.1 0-60-27.6-60-61.6 0-22 11.4-42.3 30-53.3s41.4-11 60 0 30 31.3 30 53.3c0 34-26.9 61.6-60 61.6z m270-8.3c-18.6 11-41.4 11-60 0s-30-31.3-30-53.3c0-22 11.4-42.3 30-53.3s41.4-11 60 0 30 31.3 30 53.3c0 22-11.4 42.3-30 53.3z" p-id="65046" fill="#ffffff"></path></svg>