<?xml version="1.0" standalone="no"?><!DOCTYPE svg PUBLIC "-//W3C//DTD SVG 1.1//EN" "http://www.w3.org/Graphics/SVG/1.1/DTD/svg11.dtd"><svg t="1529462083648" class="icon" style="" viewBox="0 0 1248 1024" version="1.1" xmlns="http://www.w3.org/2000/svg" p-id="76008" xmlns:xlink="http://www.w3.org/1999/xlink" width="19.5" height="16"><defs><style type="text/css"></style></defs><path d="M721.133642 73.601625H164.340106c-37.939365 0-68.798848 28.57095-68.798848 63.770361v765.244332c0 35.199411 30.859483 63.770361 68.798848 63.770361H324.565995c8.002723 0 14.396902-6.51132 14.396902-14.402616L774.385607 347.197045c8.571285 0 15.541168-6.969883 15.541169-15.541169v-194.282461C789.926776 102.172575 759.073007 73.601625 721.133642 73.601625zM480.221961 306.052019c0-0.679989 0.56999-1.255693 1.255693-1.255693h15.201174c0.685703 0 1.255693 0.575705 1.255693 1.255693v10.859818c0 0.685703-0.56999 1.255693-1.255693 1.255694H481.477654a1.265693 1.265693 0 0 1-1.255693-1.255694v-10.859818z m-273.142571 0c0-0.679989 0.574276-1.255693 1.261408-1.255693h230.16329c0.687131 0 1.261407 0.575705 1.261407 1.255693v10.859818c0 0.685703-0.574276 1.255693-1.261407 1.255694H208.340798a1.269979 1.269979 0 0 1-1.261408-1.255694v-10.859818z m235.654627 434.854149c0 0.798558-0.568562 1.255693-1.255694 1.255693H208.340798a1.26855 1.26855 0 0 1-1.261408-1.255693v-10.859818c0-0.685703 0.574276-1.255693 1.261408-1.255694H441.478323c0.687131 0 1.255693 0.568562 1.255694 1.255694v10.859818z m114.400942-141.25335a1.274264 1.274264 0 0 1-1.261408 1.255694H208.340798a1.274264 1.274264 0 0 1-1.261408-1.255694v-10.859818c0-0.685703 0.574276-1.257122 1.261408-1.257122h347.532753a1.271407 1.271407 0 0 1 1.261408 1.257122v10.859818zM678.388643 316.911837c0 0.685703-0.457135 1.255693-1.255693 1.255694H533.016791a1.269979 1.269979 0 0 1-1.255693-1.255694v-10.859818c0-0.679989 0.575705-1.255693 1.255693-1.255693h144.116159c0.685703 0 1.255693 0.575705 1.255693 1.255693v10.859818z" fill="#ffffff" p-id="76009"></path><path d="M635.532218 459.538021H208.340798a1.269979 1.269979 0 0 1-1.261408-1.255693v-10.859818c0-0.685703 0.574276-1.255693 1.261408-1.255694H635.532218c0.685703 0 1.255693 0.56999 1.255693 1.255694v10.859818c0 0.685703-0.56999 1.255693-1.255693 1.255693z" fill="#ffffff" p-id="76010"></path><path d="M797.699503 0.002857H421.478658a14.33976 14.33976 0 0 0-14.402616 14.396902A14.342617 14.342617 0 0 0 421.478658 28.802375h376.220845c20.798223 0 37.716511 15.658309 37.716511 34.972272V269.255492c0 8.11415 5.825617 15.541168 13.939767 16.345441 9.256988 0.909985 17.14257-6.401321 17.14257-15.429742v-206.396544c0.001429-35.200839-30.858055-63.77179-68.798848-63.77179zM683.532843 553.023599l-266.056975 296.45218c0 27.086689 13.599772 42.397862 40.686462 47.426349l323.650296-221.939142c-42.397862-28.800946-77.938695-74.514467-98.279783-121.939387z" fill="#ffffff" p-id="76011"></path><path d="M473.363504 1023.987143c-8.45843 0-18.626831 0-25.372432-1.712828-3.427085 0-6.741316-1.719971-8.454145-1.719972-16.914003-5.027059-30.513775-11.884087-42.39929-23.765316-10.172687-11.886944-16.914003-25.373861-18.632545-40.685033-3.425657-30.512346 11.885515-62.746092 42.405004-88.112811l3.425657-1.719971 18.626831 25.375289-3.425657 1.7114c-22.059631 18.626831-33.945146 38.973633-30.513774 59.314722 1.714257 8.459858 5.028487 16.914003 10.168401 22.056773 6.745601 6.742744 15.199746 11.886944 27.086689 15.202603 1.712828 0 5.027059 1.712828 6.739887 1.712828 6.74703 1.7114 13.605487 1.7114 20.345374 1.7114 42.39929-1.7114 93.141298-25.366718 149.138932-67.766008 67.771723-52.571977 132.112074-81.371495 182.971222-82.972897h5.028488c8.454144 0 15.201174 0 23.772459 1.712829 18.626831 3.429943 33.939432 10.172687 47.426349 20.345373 15.201174 11.885515 27.086689 28.798089 35.540833 47.424921l1.712829 5.029916s1.718543 18.626831-18.626831 16.914002c-6.741316 0-15.201174-16.914003-15.201174-16.914002-5.028487-11.885515-13.599772-20.339659-22.053917-27.08669-10.172687-6.742744-20.345374-11.885515-33.945146-13.599772-5.028487-1.714257-11.885515-1.714257-16.914002-1.714257h-3.425657c-45.71352 1.714257-101.716869 28.799518-164.344392 76.227295-77.938695 59.540432-135.53916 73.030206-171.079993 73.030206z m401.936128-341.937133c-93.485578 0-169.595732-76.113012-169.595732-169.600018 0-93.481292 76.108726-169.595732 169.595732-169.595732s169.595732 76.11444 169.595732 169.595732c-0.001429 93.485578-76.110154 169.600018-169.595732 169.600018z m0-308.79483" fill="#ffffff" p-id="76012"></path></svg>