<?xml version="1.0" standalone="no"?><!DOCTYPE svg PUBLIC "-//W3C//DTD SVG 1.1//EN" "http://www.w3.org/Graphics/SVG/1.1/DTD/svg11.dtd"><svg t="1529462025642" class="icon" style="" viewBox="0 0 1033 1024" version="1.1" xmlns="http://www.w3.org/2000/svg" p-id="75219" xmlns:xlink="http://www.w3.org/1999/xlink" width="16.140625" height="16"><defs><style type="text/css"></style></defs><path d="M197.527 818.163h203.015V653.112c-23.533-5.622-40.591-20.238-40.591-37.873 0-17.611 17.059-32.227 40.591-37.849V412.344H197.527v405.819z m487.305-315.689a261.56 261.56 0 0 1 40.596-15.997V351.44h116.293L420.873 52.579 0.001 351.44h116.269v466.723h40.641V371.748h527.921v130.726z m-40.636 24.803V412.344H441.157V577.39c23.538 5.622 40.571 20.238 40.571 37.849 0 17.611-17.033 32.251-40.571 37.873v165.051h107.028c-7.283-24.435-12.447-49.792-12.447-76.6 0-87.967 43.013-165.395 108.458-214.286z m159.285 434.04c-89.399 0.203-170.107-53.494-204.461-136.026-34.35-82.538-15.571-177.641 47.57-240.926s158.202-82.28 240.816-48.116c82.614 34.165 136.492 114.753 136.492 204.153-0.008 121.809-98.607 220.629-220.416 220.907v0.008z m51.47-281.71l-51.482-104.561-51.481 104.557-115.13 16.764 83.303 81.386-19.662 114.915 102.97-54.257 102.966 54.257-19.664-114.915 83.294-81.386-115.114-16.76z" p-id="75220" fill="#ffffff"></path></svg>