<?xml version="1.0" standalone="no"?><!DOCTYPE svg PUBLIC "-//W3C//DTD SVG 1.1//EN" "http://www.w3.org/Graphics/SVG/1.1/DTD/svg11.dtd"><svg t="1529459893371" class="icon" style="" viewBox="0 0 1024 1024" version="1.1" xmlns="http://www.w3.org/2000/svg" p-id="41772" xmlns:xlink="http://www.w3.org/1999/xlink" width="16" height="16"><defs><style type="text/css"></style></defs><path d="M945.37785 504.975003c-12.851703-6.42534-19.277042-6.42534-32.120558 0l-122.059964 89.937358v-19.271925c0-38.547944-19.273972-70.665433-44.968167-96.362698 64.24521-38.542828 102.788038-102.789061 102.788037-179.874717 0-115.634624-96.362698-211.997322-211.997321-211.997322s-211.998345 96.362698-211.998346 211.997322c0 57.814754 25.697265 115.634624 70.666457 154.178475H380.052341c32.121582-32.122605 44.968168-77.091796 44.968167-122.059964 0-102.782921-83.512019-179.87574-179.87574-179.87574-102.782921 0-179.873694 83.517135-179.873694 179.87574 0 57.81987 25.696242 102.787014 64.23907 134.905526-38.542828 19.276019-64.23907 57.81987-64.23907 102.788038v244.115834c0 64.24521 51.394531 122.059963 122.05894 122.059963h481.809397c64.240093 0 122.056893-51.394531 122.056894-122.059963v-32.118512L906.831952 883.996362c6.42534 6.424316 12.851703 6.424316 19.268856 6.424317h12.851702c12.848633-6.424316 19.273972-12.845563 19.273972-25.694196V530.671245c-0.001023-6.42534-6.426363-19.270902-12.848632-25.696242zM514.956843 704.122669l-134.903479 77.088726c-19.270902 12.846586-32.119535 0-32.119535-19.270903V614.184287c0-19.271926 19.272949-32.123628 32.119535-19.271926l134.903479 77.090773c19.278065 6.420223 19.278065 25.692149 0 32.119535z m0 0" p-id="41773" fill="#ffffff"></path></svg>