<?xml version="1.0" encoding="utf-8"?>
<!-- Generator: Adobe Illustrator 19.2.0, SVG Export Plug-In . SVG Version: 6.00 Build 0)  -->
<svg version="1.1" id="图层_1" xmlns="http://www.w3.org/2000/svg" xmlns:xlink="http://www.w3.org/1999/xlink" x="0px" y="0px"
	 viewBox="0 0 16 16" style="enable-background:new 0 0 16 16;" xml:space="preserve">
<style type="text/css">
	.st0{fill:#FCFCFC;}
</style>
<g>
	<path class="st0" d="M7.6,8.7c0,0-0.4,2.5-0.4,2.7s0.6,1,0.8,1s0.8-0.8,0.8-1c0-0.2-0.4-2.7-0.4-2.7H7.6z"/>
	<path class="st0" d="M10.5,5.4C10.5,4,9.4,2.8,8,2.8S5.5,4,5.5,5.4c0,1.4,1.1,2.5,2.5,2.5S10.5,6.8,10.5,5.4z"/>
	<path class="st0" d="M13.1,0.7H2.9c-1.2,0-2.2,1-2.2,2.2v10.3c0,1.2,1,2.2,2.2,2.2h10.3c1.2,0,2.2-1,2.2-2.2V2.9
		C15.3,1.6,14.4,0.7,13.1,0.7z M13.2,13.9c-0.2,0-0.4-0.2-0.4-0.4c0-2.3-1.6-4.2-3.8-4.7c0.1,0.8,0.5,2.3,0.5,2.6
		c0,0.4-1,1.8-1.5,1.8S6.4,12,6.4,11.4c0-0.3,0.3-1.8,0.5-2.6c-2.2,0.5-3.8,2.4-3.8,4.7c0,0.2-0.2,0.4-0.4,0.4s-0.4-0.2-0.4-0.4
		C2.4,11,4,8.9,6.2,8.2C5.3,7.6,4.7,6.6,4.7,5.4c0-1.8,1.5-3.3,3.3-3.3s3.3,1.5,3.3,3.3c0,1.2-0.6,2.2-1.5,2.8
		c2.3,0.7,3.9,2.8,3.9,5.3C13.6,13.7,13.5,13.9,13.2,13.9z"/>
</g>
</svg>
