<?xml version="1.0" standalone="no"?><!DOCTYPE svg PUBLIC "-//W3C//DTD SVG 1.1//EN" "http://www.w3.org/Graphics/SVG/1.1/DTD/svg11.dtd"><svg t="1529458106366" class="icon" style="" viewBox="0 0 1024 1024" version="1.1" xmlns="http://www.w3.org/2000/svg" p-id="11618" xmlns:xlink="http://www.w3.org/1999/xlink" width="16" height="16"><defs><style type="text/css"></style></defs><path d="M959.677 540.925c0-113.366-42.453-216.654-111.778-295.777l20.06-20.06 15.209 15.209c14.089 14.087 36.949 14.087 51.038 0 14.089-14.089 14.089-37.042 0-51.132l-71.192-71.378c-14.089-14.089-36.949-14.089-51.038 0-14.089 14.089-14.089 37.04 0 51.131l15.209 15.209-20.06 20.061c-61.86-54.582-138.743-92.093-223.652-105.809-4.198-36.016-34.43-64.101-71.472-64.101-37.043 0-67.272 28.085-71.379 64.195-58.221 9.423-112.619 30.231-161.137 59.994-22.86 13.998-27.619 45.158-10.077 65.408 13.808 15.86 37.042 19.406 54.863 8.397 54.676-33.683 118.871-53.274 187.636-53.274 199.02 0 360.998 162.351 360.998 361.929 0 201.259-164.682 364.729-366.13 361.837-194.727-2.707-353.065-161.418-355.866-356.705-0.746-52.718 9.799-102.821 29.39-148.168 7.932-18.382 2.427-39.841-13.527-51.878l-0.187-0.187c-22.3-16.887-54.397-8.397-65.501 17.262-23.512 54.585-36.761 114.673-36.761 177.84 0 247.445 200.886 448.797 447.678 448.797l-0.001-0.002c246.791-0.002 447.677-201.353 447.677-448.798z" p-id="11619" fill="#ffffff"></path><path d="M512 265.861c-23.952 0-43.549 19.597-43.549 43.549v148.239c-30.896 15.85-52.078 47.952-52.078 85.064 0 52.813 42.814 95.626 95.627 95.626 37.111 0 69.213-21.182 85.064-52.078h62.64c23.952 0 43.548-19.597 43.548-43.549 0-23.952-19.597-43.549-43.548-43.549h-62.64a95.909 95.909 0 0 0-41.515-41.515V309.41c-0.001-23.952-19.597-43.549-43.549-43.549z" p-id="11620" fill="#ffffff"></path></svg>