<?xml version="1.0" standalone="no"?><!DOCTYPE svg PUBLIC "-//W3C//DTD SVG 1.1//EN" "http://www.w3.org/Graphics/SVG/1.1/DTD/svg11.dtd"><svg t="1529460081177" class="icon" style="" viewBox="0 0 1024 1024" version="1.1" xmlns="http://www.w3.org/2000/svg" p-id="43633" xmlns:xlink="http://www.w3.org/1999/xlink" width="16" height="16"><defs><style type="text/css"></style></defs><path d="M160 288h162.72l-64.56-142.08a24 24 0 0 1 2.96-24.56A182.96 182.96 0 0 0 136 294.64V312a24 24 0 0 1 24-24zM912 336H160a24 24 0 0 1-24-24v417.36A182.88 182.88 0 0 0 318.64 912h434.72A182.88 182.88 0 0 0 936 729.36V312a24 24 0 0 1-24 24zM688 620.56l-220 132A24 24 0 0 1 432 732v-264a24 24 0 0 1 36.32-20.56L688 579.44a24 24 0 0 1 0 41.12zM753.36 112H318.64a183.2 183.2 0 0 0-28.72 2.24 24 24 0 0 1 11.92 11.76L375.44 288h83.28l-64.56-142.08a24 24 0 0 1 43.68-19.84L511.44 288h83.28l-64.56-142.08a24 24 0 0 1 43.68-19.84L647.44 288h83.28l-64.56-142.08a24 24 0 0 1 43.68-19.84L783.44 288H912a24 24 0 0 1 24 24v-17.36A182.88 182.88 0 0 0 753.36 112z" p-id="43634" fill="#ffffff"></path></svg>