<?xml version="1.0" standalone="no"?><!DOCTYPE svg PUBLIC "-//W3C//DTD SVG 1.1//EN" "http://www.w3.org/Graphics/SVG/1.1/DTD/svg11.dtd"><svg t="1529461145125" class="icon" style="" viewBox="0 0 1026 1024" version="1.1" xmlns="http://www.w3.org/2000/svg" p-id="59671" xmlns:xlink="http://www.w3.org/1999/xlink" width="16.03125" height="16"><defs><style type="text/css"></style></defs><path d="M941.511111 187.733333h-150.755555V91.022222c0-51.2-36.977778-91.022222-85.333334-91.022222H321.422222c-45.511111 0-85.333333 39.822222-85.333333 91.022222v96.711111H85.333333C39.822222 187.733333 0 227.555556 0 278.755556v651.377777C0 984.177778 39.822222 1024 85.333333 1024h856.177778c45.511111 0 85.333333-39.822222 85.333333-91.022222v-654.222222c-2.844444-48.355556-39.822222-91.022222-85.333333-91.022223zM281.6 91.022222c0-22.755556 17.066667-42.666667 36.977778-42.666666h384c19.911111 0 36.977778 17.066667 36.977778 42.666666v96.711111H281.6V91.022222z m696.888889 531.911111h-164.977778v17.066667c0 14.222222-11.377778 25.6-22.755555 25.6s-22.755556-11.377778-22.755556-25.6v-17.066667H258.844444v17.066667c0 14.222222-11.377778 25.6-22.755555 25.6s-22.755556-11.377778-22.755556-25.6v-17.066667H48.355556v-48.355555h164.977777v-17.066667c0-14.222222 11.377778-25.6 22.755556-25.6s22.755556 11.377778 22.755555 25.6v17.066667H768v-17.066667c0-14.222222 11.377778-25.6 22.755556-25.6s22.755556 11.377778 22.755555 25.6v17.066667h164.977778v48.355555z" fill="#ffffff" p-id="59672"></path></svg>