<?xml version="1.0" encoding="utf-8"?>
<!-- Generator: Adobe Illustrator 19.2.0, SVG Export Plug-In . SVG Version: 6.00 Build 0)  -->
<svg version="1.1" id="图层_1" xmlns="http://www.w3.org/2000/svg" xmlns:xlink="http://www.w3.org/1999/xlink" x="0px" y="0px"
	 viewBox="0 0 18.9 16" style="enable-background:new 0 0 18.9 16;" xml:space="preserve">
<style type="text/css">
	.st0{fill:#FFFFFF;}
</style>
<path class="st0" d="M8.7,6.1c0-0.2,0.1-0.4,0.1-0.5c0,0,0,0,0-0.1c0-0.2-0.1-0.4-0.1-0.6l-0.3,0L8.3,4.7c-0.7-0.5-1.5-0.1-1.9,0
	c-0.6,0.2-1,1.1-0.7,2.3c0,0.2-0.1,0.3-0.1,0.4c0,0.3,0,0.9,0.3,1c0,0,0.2,0.1,0.2,0c0,0.3,0,0.5,0.1,0.8c0.1,0.2,0.2,0.2,0.2,0.4
	l-0.2,0c-0.1,0.2-0.2,0.5-0.4,0.6c-0.1,0-0.3,0.1-0.4,0.1c-0.5,0.2-1,0.4-1.4,0.6c-0.4,0.2-0.9,0.2-1.1,0.7c0,0.3,0,1,0,1.4h2.1
	c0-0.1,0-0.3,0-0.4c0-0.3,0-0.5,0-0.7v-0.1l0-0.1c0.2-0.7,0.9-0.9,1.4-1.1c0.1,0,0.3-0.1,0.4-0.1c0.3-0.1,0.5-0.2,0.8-0.3
	c0.4-0.2,0.8-0.3,1.2-0.5c0,0,0-0.1-0.1-0.1c-0.1,0-0.2,0-0.3,0c0-0.3,0.2-0.3,0.3-0.5c0.1-0.2,0-0.4,0.1-0.6C8.8,8.6,9,8.6,9,8.5
	c0.1-0.1,0.1-0.3,0.1-0.4c0-0.1,0-0.1,0-0.2C8.8,7.5,8.8,6.8,8.7,6.3C8.7,6.2,8.7,6.2,8.7,6.1L8.7,6.1z"/>
<path class="st0" d="M14.1,3c0.1,0.4,0.1,0.8,0.1,1.3c0,0.2-0.1,1-0.1,1.2c0,0.2,0.1,0.2,0.2,0.4c0.1,0.3,0.1,0.7,0,1
	c0,0.2-0.1,0.4-0.2,0.5c-0.1,0.1-0.3,0.1-0.4,0.3c-0.1,0.2-0.1,0.6-0.1,0.8c-0.1,0.3-0.3,0.3-0.4,0.7c0.1,0,0.2,0,0.4,0.1
	c0.1,0.3,0.3,0.8,0.6,0.9c0.2,0.1,0.4,0.1,0.6,0.2c0.6,0.3,1.4,0.6,2,0.9c0.6,0.3,1.3,0.3,1.5,1c0,0.4,0,1.4,0,2H5.4
	c0-0.6,0-1.6,0-2c0.2-0.6,0.9-0.7,1.5-1c0.6-0.3,1.4-0.6,2-0.9c0.2-0.1,0.4-0.1,0.6-0.2c0.2-0.2,0.4-0.7,0.6-0.9l0.3-0.1
	c-0.1-0.3-0.3-0.4-0.3-0.6c0-0.4-0.1-0.7-0.1-1.1c0,0-0.2,0-0.3-0.1C9.3,7.3,9.2,6.4,9.2,6.1c0-0.2,0.2-0.3,0.2-0.6
	c-0.4-1.8,0.2-3,1-3.3C11,2,12.1,1.5,13.1,2.1l0.3,0.2l0.4,0.1C14,2.6,14.1,3,14.1,3L14.1,3z"/>
</svg>
