<?xml version="1.0" standalone="no"?><!DOCTYPE svg PUBLIC "-//W3C//DTD SVG 1.1//EN" "http://www.w3.org/Graphics/SVG/1.1/DTD/svg11.dtd"><svg t="1529458633055" class="icon" style="" viewBox="0 0 1024 1024" version="1.1" xmlns="http://www.w3.org/2000/svg" p-id="18643" xmlns:xlink="http://www.w3.org/1999/xlink" width="16" height="16"><defs><style type="text/css"></style></defs><path d="M831.552 64 192.384 64C121.472 64 64 121.472 64 192.448l0 639.168C64 902.592 121.472 960 192.384 960l639.168 0C902.464 960 960 902.592 960 831.616L960 192.448C960 121.472 902.464 64 831.552 64zM889.344 208.128l-0.128 0c-48.256 2.56-80.896 29.952-97.728 81.984l-246.656 581.12L515.072 871.232 238.72 278.336C218.88 234.24 187.84 210.688 145.344 208.128L145.344 184.768l365.568 0 0 23.36c-70.976 0-101.952 14.4-93.568 42.944 0 18.24 11.328 46.784 34.048 85.824L591.68 652.8l140.096-327.616c0-2.624 1.344-7.808 4.48-15.68 11.136-25.92 16.896-44.096 16.896-54.528 2.752-28.608-28.352-44.352-93.504-46.848L659.648 184.768l229.632 0L889.28 208.128z" fill="#ffffff" p-id="18644"></path></svg>