<?xml version="1.0" standalone="no"?><!DOCTYPE svg PUBLIC "-//W3C//DTD SVG 1.1//EN" "http://www.w3.org/Graphics/SVG/1.1/DTD/svg11.dtd"><svg t="1529458756608" class="icon" style="" viewBox="0 0 1025 1024" version="1.1" xmlns="http://www.w3.org/2000/svg" p-id="19009" xmlns:xlink="http://www.w3.org/1999/xlink" width="16.015625" height="16"><defs><style type="text/css"></style></defs><path d="M512.512 607.744c-123.904 0-223.744-100.352-223.744-223.744 0-123.904 100.352-223.744 223.744-223.744s223.744 100.352 223.744 223.744-100.352 223.744-223.744 223.744z m352.256-49.664c25.6-51.712 40.448-109.056 40.448-170.496 0-214.016-176.128-387.072-393.216-387.072s-393.216 173.568-393.216 387.072c0 61.44 14.848 118.784 40.448 170.496L0 829.952s101.376 20.48 203.776 41.472c68.608 76.288 136.704 152.064 136.704 152.064l146.944-250.368c8.192 0.512 16.384 1.024 25.088 1.024 8.192 0 16.896-0.512 25.088-1.024l146.944 250.368s68.096-76.288 136.704-152.064C923.136 850.432 1024.512 829.952 1024.512 829.952l-159.744-271.872z m-352.256-334.336c-88.576 0-159.744 71.68-159.744 159.744 0 88.576 71.68 159.744 159.744 159.744s159.744-71.68 159.744-159.744-71.68-159.744-159.744-159.744z" fill="#ffffff" p-id="19010"></path></svg>