<?xml version="1.0" standalone="no"?><!DOCTYPE svg PUBLIC "-//W3C//DTD SVG 1.1//EN" "http://www.w3.org/Graphics/SVG/1.1/DTD/svg11.dtd"><svg t="1529459552771" class="icon" style="" viewBox="0 0 1107 1024" version="1.1" xmlns="http://www.w3.org/2000/svg" p-id="32622" xmlns:xlink="http://www.w3.org/1999/xlink" width="17.296875" height="16"><defs><style type="text/css"></style></defs><path d="M479.751635 252.215782c16.897567 0 31.47948 12.597665 35.464755 30.632084l2.40375 10.391081a273.935239 273.935239 0 0 1 4.023031 46.606746c0 38.308983-3.649673 67.833581-11.162966 90.255998l-19.649505 58.659057 61.864058 0.260092c59.707814 0.251702 150.517555 0.679594 159.26838 0.847395 15.643254 0.667009 21.805748 6.007278 27.133433 14.951075 5.44095 9.157743 6.36805 18.307096 6.086983 24.738072-4.056591 25.17016-54.149404 251.038783-62.556237 285.060449-3.100125 5.369634-7.282566 9.891873-12.165577 13.147214-8.419418 5.57519-8.973162 5.57519-12.799026 5.57519l-362.404155 0.020975 0.503403-328.760041c87.600546-27.397719 151.33139-108.458218 153.852601-202.460375l0.067121-2.458286-0.134241-1.62767 0.020975-0.960661 0.062926-3.842645c0.00839-19.766965 9.434615-41.03575 30.120291-41.03575m-300.460392 262.621252v318.696172h-60.089561v-318.696172h60.089561m300.460392-307.340236c-44.895175 0-74.830885 38.913067-74.830885 85.750539 0 2.638672-0.209751 5.164078 0 7.689484-2.349215 87.583766-71.521009 157.993093-153.814846 167.650044l-0.629254 409.489134h8.033476c-0.012585-0.012585 0.083901-0.020975 0.373357-0.020975 0.302042 0 0.394333 0.00839 0.381747 0.020975l398.401679-0.020975h0.251702c15.03917 0 23.529904-3.93913 37.226666-13.004583 13.054923-8.70468 22.930016-20.610166 29.365186-34.067811 1.782886-2.701597 63.630164-280.571771 65.211689-297.06242 1.237533-17.585552-2.579941-35.775187-12.178162-51.93443-15.135656-25.405081-37.121791-35.670311-63.722455-36.794578-1.380164-0.213946-160.938001-0.885151-160.938001-0.885151 10.563077-31.542405 13.478621-69.134039 13.47862-104.460358a318.738123 318.738123 0 0 0-7.0854-66.692533l-0.394332 0.04195c-8.318738-37.633584-40.557517-65.698312-79.130787-65.698312z m-287.187328 262.625447h-86.639885c-17.3758 0-31.441725 14.514792-31.441724 32.40658v343.316784c0 17.887594 14.065924 32.406581 31.441724 32.406581h86.639885c17.3758 0 31.441725-14.514792 31.441725-32.406581v-343.312589c0-17.895984-14.061729-32.410776-31.441725-32.410775z m66.709313 407.953754h-0.755104c0.00839 0.012585 0.07551 0.02517 0.159411 0.04195-0.062925 0.02517-0.05873 0.03356 0 0.03356a2.852618 2.852618 0 0 0 0.213946-0.012585 3.356021 3.356021 0 0 0 0.226532 0.012585c0.06712 0 0.07551-0.012585 0-0.03356a0.654424 0.654424 0 0 0 0.155215-0.04195zM906.343892 117.005879a13.172384 13.172384 0 0 0-9.426225-8.734046l-91.241829-22.111985-49.224442-79.940427a13.180774 13.180774 0 0 0-22.435003 0l-49.224442 79.940427-91.241829 22.11618a13.172384 13.172384 0 0 0-6.934379 21.340101l60.815301 71.521009-7.165106 93.607824a13.189164 13.189164 0 0 0 18.156076 13.189163l86.811881-35.741626 86.811881 35.741626a13.197554 13.197554 0 0 0 12.757076-1.526989 13.163994 13.163994 0 0 0 5.390609-11.662174L843.03255 201.137138l60.815301-71.521009a13.172384 13.172384 0 0 0 2.496041-12.61025z" fill="#ffffff" p-id="32623"></path></svg>