<?xml version="1.0" standalone="no"?><!DOCTYPE svg PUBLIC "-//W3C//DTD SVG 1.1//EN" "http://www.w3.org/Graphics/SVG/1.1/DTD/svg11.dtd"><svg t="1529550165255" class="icon" style="" viewBox="0 0 1304 1024" version="1.1" xmlns="http://www.w3.org/2000/svg" p-id="25170" xmlns:xlink="http://www.w3.org/1999/xlink" width="30.5625" height="24"><defs><style type="text/css"></style></defs><path d="M1299.957161 957.701747c-5.480167-9.443152-23.065096-12.340186-52.767864-8.651864-54.670882 7.062745-94.339969-10.705291-119.072657-53.349886-18.716276-32.272823-23.562104-64.696056-14.511327-97.308938 9.044238-32.599802 35.810735-79.155066 80.286414-139.639633l27.845528-38.550819c82.614503-113.651346 99.558553-212.503624 50.819069-296.543756-49.550391-85.452681-192.433656-78.501108-295.360092-34.725165C893.921231 117.915152 717.921538 0 514.233266 0 230.225884 0 0 229.231868 0 512.00327c0 282.764863 230.225884 511.99673 514.233266 511.99673 283.994303 0 514.220187-229.231868 514.220187-511.99673a509.080078 509.080078 0 0 0-32.16165-178.569748c34.568215-12.215934 76.264572-20.854718 115.161989-22.280346 51.531884-1.889938 98.132925 8.880748 116.626854 40.787355 41.297442 71.216017 21.371345 155.315005-59.758674 252.283884l-16.590912 19.867241c-94.863135 113.383223-117.575093 212.686732-68.162034 297.903989 19.958796 34.404726 51.714992 58.947766 95.307827 73.668359 43.586295 14.714053 80.515298 13.36036 110.773931-4.034921 14.995255-8.625705 18.415455-19.919558 10.306377-33.927336M278.540294 621.338493c-59.157033 0-107.118306-47.752007-107.118306-106.673614 0-58.908529 47.961273-106.673615 107.118306-106.673615 59.176652 0 107.137925 47.765086 107.137925 106.673615 0 58.921608-47.961273 106.673615-107.137925 106.673614m235.692972 234.659719c-59.170112 0-107.124846-47.752007-107.124846-106.667076 0-58.908529 47.954734-106.667075 107.124846-106.667075 59.163573 0 107.124846 47.758546 107.124846 106.667075 0 58.915068-47.954734 106.667075-107.124846 106.667076M472.262247 514.664879c0-23.562104 19.193665-42.657675 42.853862-42.657675 23.666737 0 42.853862 19.102111 42.853863 42.657675 0 23.568643-19.180586 42.664214-42.853863 42.664214-23.660197 0.00654-42.853862-19.095571-42.853862-42.664214m41.971019-127.999183c-59.170112 0-107.124846-47.758546-107.124846-106.660536 0-58.921608 47.954734-106.673615 107.124846-106.673615 59.163573 0 107.124846 47.758546 107.124846 106.673615 0 58.908529-47.954734 106.660536-107.124846 106.660536m235.686433 234.672797c-59.170112 0-107.131386-47.752007-107.131386-106.673614 0-58.908529 47.954734-106.673615 107.131386-106.673615 59.163573 0 107.131386 47.765086 107.131385 106.673615 0 58.921608-47.967813 106.673615-107.131385 106.673614" fill="#ffffff" p-id="25171"></path></svg>