<?xml version="1.0" standalone="no"?><!DOCTYPE svg PUBLIC "-//W3C//DTD SVG 1.1//EN" "http://www.w3.org/Graphics/SVG/1.1/DTD/svg11.dtd"><svg t="1529460762159" class="icon" style="" viewBox="0 0 1515 1024" version="1.1" xmlns="http://www.w3.org/2000/svg" p-id="50133" xmlns:xlink="http://www.w3.org/1999/xlink" width="23.671875" height="16"><defs><style type="text/css"></style></defs><path d="M1073.299288 523.313096c-17.513205-11.053589-37.137534-20.003068-58.851945-26.862466-4.572932-1.528986-7.820274-2.665205-9.720986-3.429699-1.907726-0.764493-4.201205-2.188274-6.859397-4.28537-2.672219-2.097096-3.534904-4.481753-2.574027-7.146959s1.809534-6.473644 2.574027-11.425315c17.127452-43.807562 17.127452-77.711781 0-101.712658-17.534247-23.236384-46.669151-34.858082-87.439781-34.858082-40.763616 0-87.615123 11.242959-140.561534 33.714849l-3.436712 1.143233c-2.272438 0.764493-4.846466 1.423781-7.701041 1.998904-2.861589 0.575123-5.624986 0.666301-8.290192 0.287562-2.658192-0.37874-4.565918-1.711342-5.709151-3.997808-1.143233-2.286466-0.946849-6.094904 0.575123-11.432329 17.134466-55.23989 13.333041-95.04263-11.432329-119.42926-28.188055-28.188055-75.137753-29.520658-140.85611-3.997808C527.310904 257.409753 462.265863 302.360548 397.88011 366.746301c-48.759233 48.759233-86.380712 97.904219-112.857425 147.427945-26.476712 49.53074-39.711562 96.185863-39.711562 140.007452 0 41.135342 12.379178 79.135562 37.137534 114.000658 24.76537 34.858082 57.428164 63.62126 98.002411 86.282521 40.567233 22.66126 86.380712 40.384877 137.426411 53.142795 51.045699 12.757918 103.431014 19.140384 157.141918 19.140384 53.717918 0 105.240548-5.898521 154.56789-17.702575 49.327342-11.818082 92.377425-27.619945 129.136219-47.433644 36.765808-19.799671 68.860493-42.187397 96.291068-67.142137 27.430575-24.95474 48.191123-51.038685 62.288658-78.286904 14.097534-27.234192 21.153315-53.809096 21.153315-79.710685 0-24.372603-6.46663-46.577973-19.434959-66.574027C1106.074301 549.880986 1090.833534 534.359671 1073.299288 523.313096zM886.741918 785.344877c-55.808 45.133151-126.190466 72.086795-211.140384 80.846904-55.61863 5.337425-107.905753 1.339616-156.854356-12.000438s-88.667178-34.093589-119.141699-62.288658c-30.474521-28.195068-47.42663-60.577315-50.856329-97.153753-5.337425-55.61863 19.904877-105.991014 75.712877-151.138192s126.190466-72.100822 211.140384-80.860932c55.61863-5.337425 107.905753-1.332603 156.847342 12.000438 48.948603 13.333041 88.667178 34.093589 119.148712 62.281644 30.481534 28.195068 47.42663 60.577315 50.849315 97.14674C967.778192 689.811288 942.549918 740.183671 886.741918 785.344877z" p-id="50134" fill="#ffffff"></path><path d="M692.174904 548.471233c-40.377863-10.282082-80.475178-6.656-120.284932 10.864219-39.809753 17.520219-68.66411 43.989918-86.570082 79.423123-17.905973 36.183671-19.147397 71.897425-3.71726 107.14126 15.430137 35.236822 43.52 59.328877 84.283616 72.290192 42.285589 13.711781 84.956932 11.425315 128-6.866411 43.050082-18.284712 73.138849-46.865534 90.294356-85.714411 17.127452-38.098411 16.657534-74.380274-1.437808-108.859616C764.640438 582.284274 734.460493 559.524822 692.174904 548.471233zM631.029479 733.618849c-8.38137 12.947288-20.283616 22.001973-35.720767 27.136-15.430137 5.148055-29.625863 4.671123-42.573151-1.423781-12.947288-6.094904-21.139288-15.710685-24.568986-28.86137-3.429699-13.129644-0.953863-26.175123 7.427507-39.129425 7.995616-12.582575 19.427945-21.335671 34.282959-26.287342 14.862027-4.951671 28.763178-4.762301 41.717479 0.575123 13.333041 5.702137 21.910795 15.233753 25.719233 28.566795C641.122192 707.520877 639.03211 720.657534 631.029479 733.618849zM684.740384 664.463781c-2.665205 4.958685-6.859397 8.479562-12.568548 10.576658-5.716164 2.097096-11.242959 2.188274-16.57337 0.287562-11.425315-5.337425-13.901151-13.901151-7.427507-25.712219 2.665205-4.958685 6.761205-8.479562 12.280986-10.576658s10.948384-2.188274 16.285808-0.287562c4.951671 1.900712 8.283178 5.435616 10.001534 10.576658C688.45063 654.462247 687.791342 659.519123 684.740384 664.463781z" p-id="50135" fill="#ffffff"></path><path d="M1061.873973 413.892384c4.201205 8.192 10.667836 13.809973 19.434959 16.860932 8.767123 2.665205 17.239671 1.907726 25.431671-2.286466 8.184986-4.187178 13.809973-10.660822 16.853918-19.427945 7.238137-21.328658 8.479562-43.716384 3.703233-67.142137-4.755288-23.425753-15.135562-44.095123-31.126795-62.001096-15.998247-17.905973-35.250849-30.383342-57.715726-37.43211-22.478904-7.048767-45.147178-8.093808-67.997808-3.142137-9.152877 1.907726-16.19463 6.768219-21.153315 14.574466-4.944658 7.806247-6.46663 16.285808-4.558904 25.424658 1.528986 9.145863 6.27726 16.19463 14.272877 21.146301 8.009644 4.951671 16.57337 6.473644 25.726247 4.572932 24.000877-4.951671 44.368658 1.718356 61.145425 20.003068 16.76274 18.277699 21.328658 39.424 13.711781 63.424877C1056.915288 397.227836 1057.686795 405.707397 1061.873973 413.892384z" p-id="50136" fill="#ffffff"></path><path d="M1263.882521 313.891068c-9.720986-48.18411-31.140822-90.56789-64.287562-127.137315-33.14674-36.948164-72.76011-62.569205-118.868164-76.863123-46.094027-14.286904-92.559781-16.475178-139.432329-6.571836-10.667836 2.286466-18.958027 7.904438-24.856548 16.860932-5.905534 8.956493-7.715068 18.761644-5.421589 29.429479 2.279452 10.667836 7.988603 18.951014 17.141479 24.856548 9.131836 5.905534 19.042192 7.715068 29.703014 5.428603 33.14674-6.852384 66.10411-5.232219 98.865096 4.860493 32.760986 10.092712 60.956055 28.279233 84.578192 54.566575 23.615123 25.908603 38.862904 55.99737 45.715288 90.287342 6.866411 34.282959 4.958685 67.043945-5.709151 98.282959-3.043945 10.289096-2.097096 20.192438 2.861589 29.717041 4.944658 9.524603 12.568548 15.998247 22.85063 19.427945 10.289096 3.422685 20.192438 2.665205 29.717041-2.286466s16.00526-12.568548 19.434959-22.857644C1271.029479 408.085041 1273.596493 362.082192 1263.882521 313.891068z" p-id="50137" fill="#ffffff"></path></svg>