<?xml version="1.0" standalone="no"?><!DOCTYPE svg PUBLIC "-//W3C//DTD SVG 1.1//EN" "http://www.w3.org/Graphics/SVG/1.1/DTD/svg11.dtd"><svg t="1529460880037" class="icon" style="" viewBox="0 0 1024 1024" version="1.1" xmlns="http://www.w3.org/2000/svg" p-id="53208" xmlns:xlink="http://www.w3.org/1999/xlink" width="16" height="16"><defs><style type="text/css"></style></defs><path d="M960.365568 236.67712c-14.560256 30.626816-39.573504 52.407296-64.707584 72.946688-15.555584 12.689408-19.422208 25.62048-20.417536 44.8-11.449344 218.04032-106.661888 386.418688-307.03104 479.905792-166.652928 77.786112-334.789632 65.462272-496.070656-24.768512-3.24608-1.750016-7.609344-2.747392-7.852032-10.331136 65.460224 4.71552 128.940032-3.74272 188.919808-31.235072 24.64768-11.205632 48.918528-23.40864 73.433088-44.556288-12.203008-2.50368-21.025792-3.987456-29.753344-5.98016-60.976128-13.953024-104.790016-49.539072-132.038656-105.909248-6.465536-13.442048-6.222848-20.540416 12.081152-18.935808 17.161216 1.386496 34.46784 0.268288 52.759552-2.47808-84.262912-33.594368-133.533696-90.984448-137.76384-185.688064 26.494976 7.852032 48.786432 19.786752 78.526464 19.17952-38.334464-32.621568-64.342016-68.962304-73.299968-115.753984-8.725504-45.674496-3.365888-88.868864 21.78048-131.795968 34.832384 38.965248 70.188032 73.675776 111.378432 101.799936 75.669504 51.776512 159.311872 81.406976 250.149888 91.59168 15.557632 1.750016 23.165952 0.874496 21.051392-19.15392-8.604672-78.538752 21.525504-140.766208 88.358912-181.45792 67.818496-41.20064 139.379712-40.568832 203.114496 6.709248 30.239744 22.412288 54.377472 23.40864 84.750336 9.72288 19.651584-8.848384 39.57248-17.184768 64.961536-28.244992-15.556608 42.440704-38.576128 72.80128-76.168192 98.299904 35.099648 0.146432 62.726144-14.682112 92.223488-20.273152L960.365568 236.67712z" p-id="53209" fill="#ffffff"></path></svg>