<?xml version="1.0" standalone="no"?><!DOCTYPE svg PUBLIC "-//W3C//DTD SVG 1.1//EN" "http://www.w3.org/Graphics/SVG/1.1/DTD/svg11.dtd"><svg t="1529460801820" class="icon" style="" viewBox="0 0 1024 1024" version="1.1" xmlns="http://www.w3.org/2000/svg" p-id="51594" xmlns:xlink="http://www.w3.org/1999/xlink" width="16" height="16"><defs><style type="text/css"></style></defs><path d="M501.852463 415.482145l0 85.936491L526.442242 501.418637c33.345186 0 50.002474-14.49934 50.002474-43.480361 0-28.314682-16.486583-42.451421-49.486827-42.451421l-25.105426 0L501.852463 415.482145zM832.584812 303.999926 832.584812 64.001472c0-35.359506-28.654915-64.001472-64.000294-64.001472L256.5751 0c-35.341847 0-64.001472 28.641965-64.001472 64.001472l0 239.998455L73.190705 303.999926l0 400.004488L192.573628 704.004415l0 255.997645c0 35.344202 28.659624 63.999117 64.001472 63.999117l512.009418 0c35.345379 0 64.000294-28.654915 64.000294-63.999117L832.584812 704.003238l118.224483 0L950.809295 303.999926 832.584812 303.999926 832.584812 303.999926zM768.584518 80.000662l0 223.999264L256.583341 303.999926 256.578632 80.000662l512.010595 0L768.584518 80.000662zM636.099682 455.702627c0 27.266906-9.997434 49.124226-29.997011 65.563718-19.999577 16.454797-45.003757 24.327246-75.032554 23.642071l-29.216476 0 0 92.811787-56.720015 0L445.133626 371.481428l91.625093 0C602.974647 371.481428 636.099682 399.561832 636.099682 455.702627L636.099682 455.702627zM225.491462 576.705483l-19.594594 61.014721-61.540963 0L241.81205 371.486137l66.691549 0 95.566615 266.235244-61.876487 0-19.936004-61.014721L225.491462 576.70666 225.491462 576.705483zM512.585695 992.002796c-17.672101 0-32.01604-14.328635-32.01604-32.001913 0-17.669746 14.34394-31.999559 32.01604-31.999559 17.673278 0 31.998381 14.329812 31.998381 31.999559C544.584076 977.674161 530.258973 992.002796 512.585695 992.002796L512.585695 992.002796zM768.584518 896.000589 256.5751 896.000589l0.008241-191.997351L768.584518 704.003238 768.584518 896.000589 768.584518 896.000589zM830.056022 521.267522c-19.986627 16.454797-45.003757 24.327246-75.019604 23.642071l-29.215299 0 0 92.811787-56.721192 0L669.099926 371.481428l91.593306 0c66.253602 0 99.346851 28.080404 99.346851 84.221199C860.038905 482.969533 850.055599 504.826853 830.056022 521.267522L830.056022 521.267522zM750.91124 415.482145l-25.091299 0 0 85.936491 24.561524 0c33.340477 0 50.029551-14.49934 50.029551-43.480361C800.416903 429.623593 783.911484 415.482145 750.91124 415.482145L750.91124 415.482145zM274.477947 417.377561l-1.564601 0c-0.689884 7.780622-2.215635 15.295179-4.62552 22.515417l-30.430249 92.986024 70.995673 0L278.601947 440.582862C276.647668 434.737683 275.272609 427.002975 274.477947 417.377561L274.477947 417.377561zM274.477947 417.377561" p-id="51595" fill="#ffffff"></path></svg>