<?xml version="1.0" standalone="no"?><!DOCTYPE svg PUBLIC "-//W3C//DTD SVG 1.1//EN" "http://www.w3.org/Graphics/SVG/1.1/DTD/svg11.dtd"><svg t="1529460745362" class="icon" style="" viewBox="0 0 1024 1024" version="1.1" xmlns="http://www.w3.org/2000/svg" p-id="49370" xmlns:xlink="http://www.w3.org/1999/xlink" width="16" height="16"><defs><style type="text/css"></style></defs><path d="M951.387101 653.880983 951.387101 404.175318c0-67.504454-51.327711-122.967573-117.12935-129.535574l0 247.394702c0 103.871719-84.532605 188.404324-188.404324 188.404324L355.645088 710.438769c-19.825632 18.244447-39.408006 32.961634-58.50386 45.124599 22.258225 17.757928 50.354674 28.461337 81.126975 28.461337l313.68286 0c125.400166 127.832759 258.827889 102.168904 232.190997 82.100012-39.772895-29.920893-60.449935-59.476897-69.572158-86.478679C910.27628 764.807222 951.387101 714.209289 951.387101 653.880983L951.387101 653.880983zM951.387101 653.880983" p-id="49371" fill="#ffffff"></path><path d="M775.87552 522.034446 775.87552 272.32878c0-71.883122-58.260601-130.143723-130.143723-130.143723L202.756622 142.185058c-71.883122 0-130.143723 58.260601-130.143723 130.143723l0 249.827295c0 60.328305 41.110821 110.926238 96.817199 125.643426-9.243853 27.001782-29.799264 56.557786-69.572158 86.600309-10.46015 7.905927 3.770519 16.541632 32.475116 16.541632 44.394821 0 123.575722-20.920299 199.715881-98.641644l313.68286 0C717.614919 652.178168 775.87552 593.917567 775.87552 522.034446L775.87552 522.034446zM775.87552 522.034446" p-id="49372" fill="#ffffff"></path></svg>