<?xml version="1.0" standalone="no"?><!DOCTYPE svg PUBLIC "-//W3C//DTD SVG 1.1//EN" "http://www.w3.org/Graphics/SVG/1.1/DTD/svg11.dtd"><svg t="1529460780457" class="icon" style="" viewBox="0 0 1024 1024" version="1.1" xmlns="http://www.w3.org/2000/svg" p-id="50864" xmlns:xlink="http://www.w3.org/1999/xlink" width="16" height="16"><defs><style type="text/css"></style></defs><path d="M680.246889 371.443777c11.352559 0 22.514783 0.861624 33.742499 2.094708-30.225395-140.753721-180.663686-245.303892-352.447121-245.303892-192.013175 0-349.300454 130.824581-349.300454 297.055556 0 95.91449 52.305273 174.683485 139.771347 235.869009l-34.912138 105.045451 122.127502-61.188594c43.669592 8.573259 78.70555 17.45965 122.314767 17.45965 10.978029 0 21.836331-0.494257 32.570813-1.296529-6.785543-23.379477-10.794857-47.804772-10.794857-73.27998C383.372457 495.29555 514.38635 371.443777 680.246889 371.443777L680.246889 371.443777zM492.490667 276.759301c26.400277 0 43.729967 17.33276 43.729967 43.609217 0 26.149567-17.32969 43.669592-43.729967 43.669592-26.095331 0-52.368718-17.520025-52.368718-43.669592C440.123996 294.031687 466.333938 276.759301 492.490667 276.759301L492.490667 276.759301zM248.048399 364.040157c-26.216081 0-52.616358-17.520025-52.616358-43.669592 0-26.276457 26.400277-43.609217 52.616358-43.609217 26.213012 0 43.609217 17.269315 43.609217 43.609217C291.656593 346.521155 274.258341 364.040157 248.048399 364.040157L248.048399 364.040157zM999.135706 643.702578c0-139.647527-139.768277-253.449409-296.747541-253.449409-166.224836 0-297.055556 113.865327-297.055556 253.449409 0 140.014894 130.890073 253.446339 297.055556 253.446339 34.792411 0 69.888743-8.696056 104.800881-17.453511l95.7876 52.549843-26.279526-87.336114C946.82941 792.230356 999.135706 722.468502 999.135706 643.702578L999.135706 643.702578zM606.04184 599.970564c-17.32969 0-34.912138-17.269315-34.912138-34.912138 0-17.393135 17.582447-34.909068 34.912138-34.909068 26.523073 0 43.733037 17.516956 43.733037 34.909068C649.774877 582.700225 632.565936 599.970564 606.04184 599.970564L606.04184 599.970564zM798.181905 599.970564c-17.20894 0-34.725896-17.269315-34.725896-34.912138 0-17.393135 17.45658-34.909068 34.725896-34.909068 26.276457 0 43.729967 17.516956 43.729967 34.909068C841.910848 582.700225 824.458361 599.970564 798.181905 599.970564L798.181905 599.970564z" p-id="50865" fill="#ffffff"></path></svg>