<?xml version="1.0" standalone="no"?><!DOCTYPE svg PUBLIC "-//W3C//DTD SVG 1.1//EN" "http://www.w3.org/Graphics/SVG/1.1/DTD/svg11.dtd"><svg t="1529460693932" class="icon" style="" viewBox="0 0 1024 1024" version="1.1" xmlns="http://www.w3.org/2000/svg" p-id="47887" xmlns:xlink="http://www.w3.org/1999/xlink" width="16" height="16"><defs><style type="text/css"></style></defs><path d="M907.5 850.9l-112-112c23.5-29.5 42.6-62 56.8-97.1 9.5-23.4 16.7-47.9 21.5-72.8 4.8-24.6 7.2-49.8 7.2-75 0-25.1-2.4-50.3-7.2-75-4.8-24.9-12.1-49.4-21.5-72.8-19.7-48.7-48.7-92.4-86.1-129.9-37.4-37.5-81.1-66.5-129.7-86.2-23.4-9.5-47.8-16.8-72.7-21.6-24.6-4.8-49.8-7.2-74.9-7.2-25.1 0-50.3 2.4-74.9 7.2-24.8 4.8-49.3 12.1-72.7 21.6-48.7 19.8-92.3 48.8-129.7 86.2-37.4 37.5-66.4 81.2-86.1 129.9-9.5 23.4-16.7 47.9-21.5 72.8-4.8 24.6-7.2 49.8-7.2 75 0 25.1 2.4 50.3 7.2 75 4.8 24.9 12.1 49.4 21.5 72.8 19.7 48.7 48.7 92.4 86.1 129.9 37.4 37.5 81.1 66.5 129.7 86.2 23.4 9.5 47.8 16.8 72.7 21.6 24.6 4.8 49.8 7.2 74.9 7.2 25.1 0 50.3-2.4 74.9-7.2 24.8-4.8 49.3-12.1 72.7-21.6 35.2-14.3 67.8-33.5 97.3-57.1l111.9 112c8.5 8.5 19.7 12.8 30.9 12.8s22.4-4.3 30.9-12.8c17.1-17.1 17.1-44.8 0-61.9z m-404-123.2c-118.2 9.6-216.9-88.5-210.6-207.3 2.7-52 22.2-103.9 47.9-151 0.1-0.2 0.3-0.2 0.4-0.1 25.1 21.5 53.8 30.6 81.3 25 60.4-12.3 106.3-73 85.3-177-0.9-4.5-1.9-8.9-2.9-13.2-0.1-0.3 0.3-0.5 0.5-0.3 27 26 177.3 149.1 177.3 328.9-0.1 102.7-78.9 186.9-179.2 195zM383.2 563.3c-0.1 0-0.2 0.2-0.2 0.3 14.7 59.8 58.7 103.2 110.7 103.2 64 0 116-65.9 116-147.2 0-44.1-15.2-83.6-39.4-110.6-0.1-0.1-0.4-0.1-0.5 0.1-39.6 75.3-106.6 131.8-186.6 154.2z" p-id="47888" fill="#ffffff"></path></svg>