<?xml version="1.0" standalone="no"?><!DOCTYPE svg PUBLIC "-//W3C//DTD SVG 1.1//EN" "http://www.w3.org/Graphics/SVG/1.1/DTD/svg11.dtd"><svg t="1529549980040" class="icon" style="" viewBox="0 0 1306 1024" version="1.1" xmlns="http://www.w3.org/2000/svg" p-id="20057" xmlns:xlink="http://www.w3.org/1999/xlink" width="30.609375" height="24"><defs><style type="text/css"></style></defs><path d="M284.590313 205.411191H29.611396c-16.045584 0-29.173789 13.128205-29.173789 29.173789v223.471225c16.920798-11.377778 37.196581-17.94188 59.076923-17.94188 58.785185 0 106.48433 47.699145 106.48433 106.48433s-47.699145 106.48433-106.48433 106.484331c-21.880342 0-42.156125-6.564103-59.076923-17.941881v155.496297c0 16.045584 13.128205 29.173789 29.173789 29.173789H653.492877v-203.341311c-7.439316 1.604558-15.17037 2.479772-23.193162 2.479772-58.785185 0-106.48433-47.699145-106.48433-106.48433s47.699145-106.48433 106.48433-106.484331c8.022792 0 15.753846 0.875214 23.193162 2.479773v-203.049573H369.340171c37.780057-16.337322 64.182336-53.97151 64.182336-97.732194 0-58.785185-47.699145-106.48433-106.48433-106.48433s-106.48433 47.699145-106.484331 106.48433c-0.145869 43.760684 26.25641 81.249003 64.036467 97.732194z" fill="#ffffff" p-id="20058"></path><path d="M1066.301994 819.811191h211.072365c16.045584 0 29.173789-13.128205 29.173789-29.173789v-556.052422c0-16.045584-13.128205-29.173789-29.173789-29.173789H1067.177208c12.252991 17.358405 19.40057 38.509402 19.40057 61.264957 0 58.785185-47.699145 106.48433-106.484331 106.484331s-106.48433-47.699145-106.48433-106.484331c0-22.755556 7.147578-43.906553 19.40057-61.264957H653.492877v204.070655c-8.31453-2.042165-17.066667-3.209117-26.110541-3.209117-58.785185 0-106.48433 47.699145-106.48433 106.484331s47.699145 106.48433 106.48433 106.48433c9.043875 0 17.796011-1.166952 26.110541-3.209116v204.070655h321.786895c-36.02963 17.066667-60.973219 53.825641-60.973219 96.273504 0 58.785185 47.699145 106.48433 106.48433 106.484331s106.48433-47.699145 106.484331-106.484331c0-42.739601-24.94359-79.498575-60.97322-96.565242z" fill="#ffffff" p-id="20059"></path></svg>