<?xml version="1.0" standalone="no"?><!DOCTYPE svg PUBLIC "-//W3C//DTD SVG 1.1//EN" "http://www.w3.org/Graphics/SVG/1.1/DTD/svg11.dtd"><svg t="1529549798968" class="icon" style="" viewBox="0 0 1024 1024" version="1.1" xmlns="http://www.w3.org/2000/svg" p-id="12639" xmlns:xlink="http://www.w3.org/1999/xlink" width="24" height="24"><defs><style type="text/css"></style></defs><path d="M696.21637 964.786336z" p-id="12640" fill="#ffffff"></path><path d="M840.237314 93.463764H183.762686C124.433472 93.463764 76.338106 141.560346 76.338106 200.888344v656.474627c0 59.327998 48.095366 107.42458 107.42458 107.424581h656.474628c59.327998 0 107.423364-48.095366 107.423364-107.424581V200.888344c0-59.327998-48.095366-107.42458-107.423364-107.42458zM597.118654 660.91173l-67.17077 62.237413c-49.456418 45.831812-129.70618 45.831812-179.163815 0l-44.790649-41.490798c-49.486826-45.831812-49.486826-120.13503 0-165.966841l44.790649 41.492014c-24.728817 22.945705-24.728817 60.097923 0 82.984029l44.79065 41.492014c24.728817 22.944489 64.82329 22.944489 89.581299 0l67.201178-62.237413c24.728817-22.886106 24.728817-60.038323 0-82.984029l-44.819841-41.492014 44.819841-41.492015 44.761458 41.492015c49.486826 45.829379 49.486826 120.13503 0 165.965625z m120.908604-118.411517l-44.79065-41.461607c24.728817-22.916514 24.728817-60.067515 0-82.953621l-44.79065-41.492014c-24.728817-22.945705-64.853698-22.945705-89.581299 0l-67.201178 62.208222c-24.728817 22.915298-24.728817 60.067515 0 82.953621l44.79065 41.492014-44.79065 41.490798-44.79065-41.490798c-49.456418-45.801404-49.456418-120.105838 0-165.907242l67.171987-62.237414c49.48561-45.831812 129.704964-45.831812 179.193006 0l44.79065 41.492015c49.456418 45.798971 49.456418 120.104622-0.001216 165.906026z" p-id="12641" fill="#ffffff"></path></svg>