<?xml version="1.0" standalone="no"?><!DOCTYPE svg PUBLIC "-//W3C//DTD SVG 1.1//EN" "http://www.w3.org/Graphics/SVG/1.1/DTD/svg11.dtd"><svg t="1529549935239" class="icon" style="" viewBox="0 0 1024 1024" version="1.1" xmlns="http://www.w3.org/2000/svg" p-id="18581" xmlns:xlink="http://www.w3.org/1999/xlink" width="24" height="24"><defs><style type="text/css"></style></defs><path d="M673.348267 377.019733a33.570133 33.570133 0 0 0-47.496534 0l-3.703466 3.703467c-87.8592 87.825067-203.008 59.972267-281.4976 4.608l-32.597334-22.9888a33.604267 33.604267 0 0 1-4.386133-51.217067l128.119467-128.119466a33.5872 33.5872 0 0 0 0-47.5136l-2.628267-2.628267A252.859733 252.859733 0 0 0 238.592 59.511467c-71.970133 3.413333-136.874667 35.822933-182.766933 91.272533-81.937067 99.054933-72.704 250.0608 21.0432 343.808l53.5552 53.5552c8.704 8.704 8.704 22.801067 0 31.505067l-29.1328 29.1328a46.506667 46.506667 0 0 0-13.533867 34.816c0.5632 13.1584 6.468267 25.105067 16.622933 33.621333 18.176 15.274667 46.5408 13.1584 64.546134-4.846933l27.118933-27.118934a22.272 22.272 0 1 1 31.505067 31.505067l-29.1328 29.1328a46.592 46.592 0 0 0-13.550934 34.816c0.5632 13.1584 6.468267 25.105067 16.622934 33.621333 18.176 15.274667 46.5408 13.175467 64.546133-4.846933l27.118933-27.118933a22.272 22.272 0 1 1 31.505067 31.505066l-29.1328 29.1328a46.5408 46.5408 0 0 0-13.550933 34.833067c0.5632 13.1584 6.468267 25.088 16.622933 33.604267 18.193067 15.274667 46.557867 13.175467 64.5632-4.846934l27.118933-27.118933a22.272 22.272 0 1 1 31.505067 31.505067l-27.118933 27.118933c-18.005333 18.005333-20.1216 46.370133-4.846934 64.546133 8.533333 10.171733 20.462933 16.0768 33.604267 16.64a45.653333 45.653333 0 0 0 34.833067-13.550933l44.117333-44.117333a1.0752 1.0752 0 0 1 1.536 0l30.737067 30.737066 2.542933 2.542934 8.925867 8.925866c16.213333 16.213333 42.222933 20.48 61.0304 7.338667a46.472533 46.472533 0 0 0 6.5024-71.048533l-29.2352-29.2352a22.272 22.272 0 1 1 31.505066-31.505067l27.323734 27.323733c16.213333 16.213333 42.222933 20.48 61.0304 7.338667a46.472533 46.472533 0 0 0 6.5024-71.048533l-29.2352-29.2352a22.272 22.272 0 1 1 31.505066-31.505067l27.323734 27.323733c16.2304 16.213333 42.24 20.48 61.0304 7.338667a46.455467 46.455467 0 0 0 6.485333-71.048533L778.752 676.693333a22.272 22.272 0 1 1 31.505067-31.505066l27.323733 27.323733c16.213333 16.2304 42.222933 20.48 61.0304 7.338667a46.4896 46.4896 0 0 0 6.5024-71.0656l-231.765333-231.765334z" fill="#ffffff" p-id="18582"></path><path d="M932.437333 100.420267v-0.017067c-99.037867-81.902933-250.043733-72.704-343.790933 21.026133l-21.8112 21.8112-0.136533-0.136533-156.2112 156.228267c-16.861867 16.861867-11.1616 45.1072 10.666666 54.7328 41.745067 18.3808 102.6048 30.020267 153.480534-20.855467l51.336533-51.336533a33.570133 33.570133 0 0 1 47.496533 0l210.6368 210.6368a33.5872 33.5872 0 0 0 47.5136 0l18.773334-18.773334c49.954133-49.9712 76.6976-119.432533 73.335466-190.5664-3.413333-71.970133-35.822933-136.874667-91.2896-182.749866z" fill="#ffffff" p-id="18583"></path></svg>