<?xml version="1.0" standalone="no"?><!DOCTYPE svg PUBLIC "-//W3C//DTD SVG 1.1//EN" "http://www.w3.org/Graphics/SVG/1.1/DTD/svg11.dtd"><svg t="1529549416068" class="icon" style="" viewBox="0 0 1024 1024" version="1.1" xmlns="http://www.w3.org/2000/svg" p-id="6329" xmlns:xlink="http://www.w3.org/1999/xlink" width="24" height="24"><defs><style type="text/css"></style></defs><path d="M926.088016 770.799254c-3.51608-6.063089-14.81645-7.919367-33.894971-5.555529-35.121915 4.54348-60.609403-6.879688-76.497255-34.273595-12.019755-20.732184-15.132652-41.562605-9.318226-62.513776 5.806239-20.942985 23.0029-50.850132 51.580772-89.703021l17.886369-24.76401c53.067636-73.008804 63.954591-136.511093 32.643468-190.502775-31.829939-54.896284-123.615389-50.428529-189.741435-22.311145-53.492308-109.860107-166.56662-185.613418-297.416783-185.613418-182.449355 0-330.349847 147.259902-330.349847 328.917218 0 181.65527 147.900491 328.917218 330.349847 328.917218 182.443215 0 330.343707-147.261948 330.343707-328.917218 0-40.35101-7.312546-78.997192-20.664645-114.716718 22.205745-7.845689 48.995901-13.397125 73.984015-14.31196 33.103956-1.215688 63.041802 5.705955 74.92341 26.200732 26.530236 45.753043 13.727653 99.776448-38.385239 162.069189l-10.664897 12.765745c-60.936861 72.840982-75.524091 136.635937-43.782156 191.376679 12.814864 22.097274 33.222659 37.867446 61.225433 47.323818 28.004821 9.453303 51.723012 8.583492 71.166853-2.595105C929.098583 787.06266 931.303808 779.798209 926.088016 770.799254zM269.921569 554.714847c-38.009685 0-68.820412-30.67872-68.820412-68.524676 0-37.842887 30.809703-68.52263 68.820412-68.52263s68.822458 30.680766 68.822458 68.52263C338.743004 524.037151 307.931255 554.714847 269.921569 554.714847zM421.330978 705.467293c-38.009685 0-68.824505-30.67872-68.824505-68.52263 0-37.84698 30.813796-68.52263 68.824505-68.52263 38.005592 0 68.820412 30.676673 68.820412 68.52263C490.151389 674.788573 459.337593 705.467293 421.330978 705.467293zM394.368906 486.190171c0-15.134699 12.328793-27.406187 27.53103-27.406187 15.202237 0 27.528983 12.271488 27.528983 27.406187 0 15.138792-12.326746 27.412326-27.528983 27.412326C406.697699 513.602498 394.368906 501.328963 394.368906 486.190171zM421.330978 403.960355c-38.009685 0-68.824505-30.676673-68.824505-68.52263 0-37.84698 30.813796-68.52263 68.824505-68.52263 38.005592 0 68.820412 30.676673 68.820412 68.52263C490.151389 373.284705 459.337593 403.960355 421.330978 403.960355zM572.737316 554.714847c-38.009685 0-68.820412-30.67872-68.820412-68.524676 0-37.842887 30.809703-68.52263 68.820412-68.52263 38.009685 0 68.824505 30.680766 68.824505 68.52263C641.561821 524.037151 610.747002 554.714847 572.737316 554.714847z" p-id="6330" fill="#ffffff"></path></svg>