<?xml version="1.0" standalone="no"?><!DOCTYPE svg PUBLIC "-//W3C//DTD SVG 1.1//EN" "http://www.w3.org/Graphics/SVG/1.1/DTD/svg11.dtd"><svg t="1529549763365" class="icon" style="" viewBox="0 0 1024 1024" version="1.1" xmlns="http://www.w3.org/2000/svg" p-id="11854" xmlns:xlink="http://www.w3.org/1999/xlink" width="24" height="24"><defs><style type="text/css"></style></defs><path d="M68.266667 56.888889V967.111111c0 31.288889 25.6 56.888889 56.888889 56.888889h105.244444V0H125.155556c-31.288889 0-56.888889 25.6-56.888889 56.888889zM898.844444 0H275.911111v1024h622.933333c31.288889 0 56.888889-25.6 56.888889-56.888889V56.888889c0-31.288889-25.6-56.888889-56.888889-56.888889zM711.111111 341.333333c0 11.377778-8.533333 22.755556-22.755555 22.755556H381.155556c-11.377778 0-22.755556-8.533333-22.755556-22.755556v-19.911111c0-11.377778 8.533333-22.755556 22.755556-22.755555h307.2c11.377778 0 22.755556 8.533333 22.755555 22.755555v19.911111z m108.088889-176.355555c0 14.222222-11.377778 25.6-25.6 25.6H392.533333c-14.222222 0-25.6-11.377778-25.6-25.6v-14.222222c0-14.222222 11.377778-25.6 25.6-25.6h401.066667c14.222222 0 25.6 11.377778 25.6 25.6v14.222222z" p-id="11855" fill="#ffffff"></path></svg>