<?xml version="1.0" encoding="utf-8"?>
<!-- Generator: Adobe Illustrator 19.2.0, SVG Export Plug-In . SVG Version: 6.00 Build 0)  -->
<svg version="1.1" id="图层_1" xmlns="http://www.w3.org/2000/svg" xmlns:xlink="http://www.w3.org/1999/xlink" x="0px" y="0px"
	 viewBox="0 0 18 16" style="enable-background:new 0 0 18 16;" xml:space="preserve">
<style type="text/css">
	.st0{fill:#FFFFFF;}
</style>
<g>
	<path class="st0" d="M3.6,7.7C3.3,7.7,3,8,3,8.4C3,8.7,3.3,9,3.6,9h5.1c0.4,0,0.6-0.3,0.6-0.6c0-0.4-0.3-0.6-0.6-0.6H3.6z"/>
	<path class="st0" d="M12,4.6C12,4.3,11.7,4,11.4,4H3.6C3.3,4,3,4.3,3,4.6C3,5,3.3,5.3,3.6,5.3h7.7C11.7,5.3,12,5,12,4.6z"/>
	<path class="st0" d="M5.9,14.9L5.9,14.9l-3.7,0c-0.6,0-1.1-0.4-1.1-1V2.1c0-0.5,0.5-1,1.1-1h10.6c0.6,0,1.1,0.4,1.1,1v2.4
		c0,0,0,0,0,0c0,0.3,0.3,0.6,0.6,0.6c0,0,0,0,0,0c0.3,0,0.6-0.3,0.6-0.6V2.1C15,1,14,0,12.8,0H2.2C1,0,0,1,0,2.1v11.7
		C0,15,1,16,2.2,16h3.7c0.3,0,0.6-0.3,0.6-0.6C6.5,15.1,6.2,14.9,5.9,14.9z"/>
	<path class="st0" d="M17.8,8.7l-0.5-0.6c-0.1-0.1-0.2-0.1-0.2,0l-4.6,5.2c-0.2,0.2-0.6,0.2-0.8,0l-2.2-2.4c-0.1-0.1-0.2-0.1-0.2,0
		l-0.5,0.6c-0.2,0.3-0.2,0.7,0,0.9l3.2,3.6c0,0,0.1,0,0.1,0c0,0,0.1,0,0.1,0l5.6-6.3C18,9.4,18,9,17.8,8.7z"/>
</g>
</svg>
