<?xml version="1.0" standalone="no"?><!DOCTYPE svg PUBLIC "-//W3C//DTD SVG 1.1//EN" "http://www.w3.org/Graphics/SVG/1.1/DTD/svg11.dtd"><svg t="1529460512029" class="icon" style="" viewBox="0 0 1024 1024" version="1.1" xmlns="http://www.w3.org/2000/svg" p-id="44817" xmlns:xlink="http://www.w3.org/1999/xlink" width="16" height="16"><defs><style type="text/css"></style></defs><path d="M320 64v128h128V128h448v448h-64v128h128c38.4 0 64-25.6 64-64V64c0-38.4-25.6-64-64-64H384c-38.4 0-64 25.6-64 64z" p-id="44818" fill="#ffffff"></path><path d="M640 576v320H128V448c0-38.4 25.6-64 64-64h256V256H64c-38.4 0-64 25.6-64 64v640c0 38.4 25.6 64 64 64h640c38.4 0 64-25.6 64-64V576h-128z" p-id="44819" fill="#ffffff"></path><path d="M563.2 371.2L377.6 550.4c-25.6 25.6-25.6 64 0 89.6 25.6 25.6 64 25.6 89.6 0l185.6-185.6 70.4 70.4c38.4 44.8 108.8 19.2 108.8-38.4V256c0-38.4-25.6-64-64-64H537.6c-57.6 0-83.2 70.4-44.8 108.8l70.4 70.4z" p-id="44820" fill="#ffffff"></path></svg>