<?xml version="1.0" standalone="no"?><!DOCTYPE svg PUBLIC "-//W3C//DTD SVG 1.1//EN" "http://www.w3.org/Graphics/SVG/1.1/DTD/svg11.dtd"><svg t="1529461045429" class="icon" style="" viewBox="0 0 1024 1024" version="1.1" xmlns="http://www.w3.org/2000/svg" p-id="55481" xmlns:xlink="http://www.w3.org/1999/xlink" width="16" height="16"><defs><style type="text/css"></style></defs><path d="M959.488 105.472L879.104 35.84l-16.896 8.192c-172.032 84.48-310.784 15.36-336.896 0.512l-14.336-8.192L496.64 45.056c-26.112 14.848-164.864 83.968-336.896-0.512L142.848 35.84 62.464 105.472l9.728 19.968c12.288 24.576 52.736 111.104 52.736 176.64 0 14.848-5.12 41.472-11.264 72.192-10.752 54.784-24.064 122.88-24.064 190.976 0 133.632 53.76 219.648 159.232 256 166.4 56.832 220.672 109.056 238.592 134.656l23.552 34.816 23.552-34.304c17.92-26.112 72.704-77.824 239.104-134.656 105.984-36.352 159.232-122.368 159.232-256 0-68.608-13.824-139.264-24.064-190.976V373.76c-6.144-30.208-11.264-56.32-11.264-71.168 0-65.536 39.936-151.552 52.736-176.64l9.216-20.48z m-66.56 16.896c-17.92 39.424-48.64 115.712-48.64 179.712 0 19.456 5.12 46.592 12.288 81.408v1.024c10.24 52.224 23.04 117.248 23.04 181.248 0 111.616-39.424 177.152-123.904 205.824-113.664 38.912-195.072 81.92-242.176 128l-3.584 3.072-3.584-3.072c-46.592-46.08-128-89.088-242.176-128-84.48-28.672-123.904-94.208-123.904-205.824 0-62.976 12.8-128.512 23.04-180.736 6.656-34.816 12.288-62.464 12.288-82.432 0-64.512-30.208-140.288-48.64-179.712l-1.536-3.072 24.064-20.48 2.56 1.024C318.464 174.592 455.68 123.904 506.88 98.816l2.048-1.024 2.048 1.024c51.2 25.088 188.416 75.264 354.816 1.536l2.56-1.024 24.064 20.48 0.512 2.56z" p-id="55482" fill="#ffffff"></path><path d="M337.92 236.544h38.912v202.24H337.92zM445.952 236.544h39.424v202.24h-39.424zM495.104 204.288h118.272c-2.56 20.48-6.144 38.912-10.24 55.296-4.096 16.384-9.728 30.72-15.872 44.032-6.656-12.288-12.288-25.6-17.408-39.424-4.608-14.336-8.704-29.696-11.264-47.104H499.712c4.096 27.648 10.24 52.736 18.944 75.776 8.704 23.04 19.456 43.52 32.256 62.464-7.168 7.68-15.36 14.848-24.064 22.016-8.704 7.168-17.92 14.336-28.16 20.992v51.2c34.304-12.288 63.488-29.696 88.576-52.736 25.088 23.04 54.272 40.96 88.576 52.736v-51.2c-9.728-7.168-18.944-14.336-27.136-21.504-8.704-7.168-16.384-14.848-24.064-22.528 15.872-23.552 28.672-50.688 37.888-81.408 9.216-30.72 14.848-65.024 16.896-102.912h-184.32v34.304z" p-id="55483" fill="#ffffff"></path><path d="M385.536 451.072h52.736V223.232h49.664v-35.328h-49.664v-27.648H385.536v27.648h-49.664v35.328h49.664zM643.584 658.432l34.304-25.088V583.68l-44.544 32.256-17.92-78.848h61.44v-36.352h-70.144l-6.144-27.648h-59.392l6.144 27.648H347.136v231.936h-10.752v31.744H409.6v-117.248h11.264c1.536 12.288 4.608 24.064 9.216 34.304s10.752 19.456 17.92 28.16c-4.608 3.072-9.728 5.12-14.336 7.168-4.608 2.048-9.216 3.584-12.8 5.12v42.496c11.776-3.072 23.04-6.144 34.304-10.24 10.752-4.096 21.504-8.704 31.232-13.824 19.456 10.752 41.472 18.944 65.536 24.064V721.92c-4.096-1.536-8.192-3.072-12.8-5.12-4.608-2.048-9.728-4.608-14.848-7.168 14.848-16.896 24.064-37.888 26.624-62.464h19.968v-36.352h-18.944v-17.408H498.688v17.408h-26.624v-17.408H419.84v17.408h-10.24V537.6h146.432l26.112 115.2-17.408 12.288v49.664l27.136-19.968 16.384 70.656H665.6l12.288-33.28H660.48l-16.896-73.728z m-145.408-10.24c-0.512 6.144-2.048 11.776-4.096 16.896-2.56 5.12-5.12 10.24-9.216 14.848-3.584-4.608-6.656-9.216-9.216-14.848-2.56-5.12-3.584-11.264-4.096-16.896h26.624z" p-id="55484" fill="#ffffff"></path><path d="M415.744 549.376h138.752v36.352H415.744zM613.376 475.648v23.552h55.296l8.192-23.552z" p-id="55485" fill="#ffffff"></path></svg>