<?xml version="1.0" standalone="no"?><!DOCTYPE svg PUBLIC "-//W3C//DTD SVG 1.1//EN" "http://www.w3.org/Graphics/SVG/1.1/DTD/svg11.dtd"><svg t="1529458216944" class="icon" style="" viewBox="0 0 1024 1024" version="1.1" xmlns="http://www.w3.org/2000/svg" p-id="11940" xmlns:xlink="http://www.w3.org/1999/xlink" width="16" height="16"><defs><style type="text/css"></style></defs><path d="M350.13632 938.60864c-56.8576-118.36416-26.56256-186.15296 17.12128-250.05056 47.8464-69.98528 60.22144-139.21792 60.22144-139.21792s37.6576 48.91136 22.56384 125.45024c66.4576-73.97888 79.04768-191.90784 68.96128-237.09184 150.26176 105.02656 214.48192 332.416 127.96928 500.9664 460.35968-260.46464 114.5088-650.20928 54.2976-694.11328 20.04992 43.89888 23.88992 118.20032-16.70144 154.3168-68.64896-260.24448-238.32064-313.58464-238.32064-313.58464 20.05504 134.20032-72.7552 280.99072-162.25792 390.656-3.14368-53.49888-6.50752-90.46528-34.61632-141.6704-6.29248 97.23904-80.59904 176.50176-100.7616 273.90464-27.25376 131.90656 20.4288 228.5056 201.46688 330.54208l0.05632-0.10752z" p-id="11941" fill="#ffffff"></path></svg>