<?xml version="1.0" standalone="no"?><!DOCTYPE svg PUBLIC "-//W3C//DTD SVG 1.1//EN" "http://www.w3.org/Graphics/SVG/1.1/DTD/svg11.dtd"><svg t="1529458556061" class="icon" style="" viewBox="0 0 1024 1024" version="1.1" xmlns="http://www.w3.org/2000/svg" p-id="17578" xmlns:xlink="http://www.w3.org/1999/xlink" width="16" height="16"><defs><style type="text/css"></style></defs><path d="M1014.690909 723.781818c-34.909091-118.690909-104.727273-200.145455-195.490909-239.709091 55.854545-44.218182 88.436364-111.709091 88.436364-195.490909C909.963636 155.927273 800.581818 46.545455 667.927273 46.545455c-111.709091 0-174.545455 88.436364-176.872728 93.090909-2.327273 4.654545-4.654545 9.309091-4.654545 13.963636-34.909091-16.290909-72.145455-25.6-111.709091-25.6-139.636364 0-251.345455 114.036364-251.345454 251.345455 0 86.109091 44.218182 165.236364 111.70909 209.454545-109.381818 44.218182-193.163636 137.309091-225.745454 256-9.309091 30.254545-2.327273 62.836364 16.290909 90.763636C46.545455 961.163636 79.127273 977.454545 114.036364 977.454545h518.981818c34.909091 0 65.163636-16.290909 86.109091-41.890909 16.290909-20.945455 23.272727-46.545455 20.945454-72.145454h169.890909c34.909091 0 65.163636-16.290909 86.109091-41.890909 23.272727-30.254545 27.927273-65.163636 18.618182-97.745455z m-72.145454 53.527273c-4.654545 4.654545-13.963636 13.963636-30.254546 13.963636h-188.509091-2.327273c-39.563636-95.418182-116.363636-167.563636-207.127272-204.8 67.490909-44.218182 111.709091-121.018182 111.709091-209.454545 0-74.472727-32.581818-144.290909-86.109091-188.509091 4.654545-2.327273 6.981818-4.654545 9.309091-9.309091 0 0 44.218182-62.836364 121.018181-62.836364 95.418182 0 172.218182 76.8 172.218182 172.218182 0 93.090909-55.854545 160.581818-137.309091 169.890909H698.181818c-2.327273 0-6.981818 0-9.309091 2.327273h-4.654545c-18.618182 0-34.909091 16.290909-34.909091 34.909091s16.290909 34.909091 34.909091 34.909091h20.945454c116.363636 4.654545 204.8 81.454545 242.036364 214.109091 4.654545 9.309091 2.327273 23.272727-4.654545 32.581818z" p-id="17579" fill="#ffffff"></path></svg>