<?xml version="1.0" standalone="no"?><!DOCTYPE svg PUBLIC "-//W3C//DTD SVG 1.1//EN" "http://www.w3.org/Graphics/SVG/1.1/DTD/svg11.dtd"><svg t="1529550462156" class="icon" style="" viewBox="0 0 1304 1024" version="1.1" xmlns="http://www.w3.org/2000/svg" p-id="31656" xmlns:xlink="http://www.w3.org/1999/xlink" width="30.5625" height="24"><defs><style type="text/css"></style></defs><path d="M281.46 239.75c46-47.5 108.625-107.125 180.25-163-148.625-88-280.125-106-360.75-23-80.375 83.125-63 218.625 22.375 371.875 44.75-61.25 97.75-123.5 158.125-185.875zM743.585 716.25c252-259.875 375.5-529.125 246.125-662.5s-390.5-6-642.5 253.875c-252 259.875-375.5 529.25-246.125 662.5s390.5 6.125 642.5-253.875zM506.585 435.5h-30.5v203.25c0 20-15.375 36.375-34.5 36.375-19 0-34.5-16.25-34.5-36.375v-203.25h-30.5c-21 0-38.125-15.375-38.125-34.375 0-18.875 17-34.375 38.125-34.375h129.875c21 0 38.125 15.375 38.125 34.375 0.125 18.875-17 34.375-38 34.375zM673.46 675c-15.5 0-29.25-10.125-34-25.125l-75.875-236c-6.125-19.125 4.125-39.625 22.875-45.875 18.75-6.375 39 4.125 45.125 23.25l41.875 130.25 42-130.25c6.125-19.125 26.375-29.625 45.125-23.25 18.75 6.25 29 26.875 22.875 45.875l-75.875 236c-5 15-18.75 25.125-34.125 25.125zM809.335 784.25c-46 47.5-108.625 107.125-180.25 163 148.625 88.125 280.125 106.125 360.75 23.125 80.5-83 63.125-218.5-22.375-371.75-44.75 61-97.75 123.25-158.125 185.625z" p-id="31657" fill="#ffffff"></path></svg>