<?xml version="1.0" standalone="no"?><!DOCTYPE svg PUBLIC "-//W3C//DTD SVG 1.1//EN" "http://www.w3.org/Graphics/SVG/1.1/DTD/svg11.dtd"><svg t="1529550508962" class="icon" style="" viewBox="0 0 1024 1024" version="1.1" xmlns="http://www.w3.org/2000/svg" p-id="32428" xmlns:xlink="http://www.w3.org/1999/xlink" width="24" height="24"><defs><style type="text/css"></style></defs><path d="M587.093333 955.733333c0 109.226667-88.746667 54.613333-88.746666 54.613334l-375.466667-307.2H64.853333c-37.546667 0-64.853333-27.306667-64.853333-64.853334v-256c0-34.133333 30.72-64.853333 64.853333-64.853333h68.266667L498.346667 17.066667s88.746667-58.026667 88.746666 54.613333V955.733333zM730.453333 696.32c-13.653333 0-23.893333-3.413333-34.133333-13.653333-17.066667-17.066667-13.653333-44.373333 3.413333-61.44 34.133333-27.306667 51.2-68.266667 51.2-109.226667 0-40.96-17.066667-81.92-51.2-109.226667-17.066667-17.066667-17.066667-44.373333 0-61.44s44.373333-20.48 61.44-3.413333c51.2 44.373333 81.92 105.813333 81.92 174.08 0 64.853333-30.72 129.706667-81.92 174.08-10.24 6.826667-20.48 10.24-30.72 10.24z" p-id="32429" fill="#ffffff"></path><path d="M764.586667 863.573333c-17.066667 0-34.133333-10.24-40.96-27.306666-10.24-20.48 0-47.786667 23.893333-54.613334 116.053333-44.373333 187.733333-150.186667 187.733333-269.653333s-75.093333-225.28-191.146666-269.653333c-23.893333-10.24-34.133333-34.133333-23.893334-54.613334 10.24-20.48 34.133333-34.133333 58.026667-23.893333 71.68 27.306667 133.12 75.093333 177.493333 136.533333 44.373333 61.44 68.266667 136.533333 68.266667 211.626667s-23.893333 150.186667-68.266667 211.626667c-44.373333 61.44-105.813333 109.226667-174.08 136.533333-6.826667 3.413333-13.653333 3.413333-17.066666 3.413333z" p-id="32430" fill="#ffffff"></path></svg>