<?xml version="1.0" standalone="no"?><!DOCTYPE svg PUBLIC "-//W3C//DTD SVG 1.1//EN" "http://www.w3.org/Graphics/SVG/1.1/DTD/svg11.dtd"><svg t="1529550280621" class="icon" style="" viewBox="0 0 1037 1024" version="1.1" xmlns="http://www.w3.org/2000/svg" p-id="30839" xmlns:xlink="http://www.w3.org/1999/xlink" width="24.3046875" height="24"><defs><style type="text/css"></style></defs><path d="M518.467 0C232.825 0 0 229.592 0 512s232.825 512 518.467 512 518.468-229.592 518.468-512S805.187 0 518.467 0z m-68.985 510.922l-1.078 2.156-1.078 2.156-1.078 2.155-1.077 2.156v1.078l-1.078 1.078-1.078 2.156h-1.078l-1.078 2.156-1.078 2.155-1.078 2.156-1.078 2.156-1.078 2.156-1.078 2.156-1.077 2.155h-2.156l-1.078 2.156-1.078 2.156-1.078 2.156-1.078 2.156-1.078 2.155-1.078 2.156-1.077 2.156-1.078 2.156-1.078 2.155-1.078 2.156h-1.078l-1.078 2.156-1.078 2.156-1.078 2.156-1.078 2.155-1.078 2.156-1.077 2.156-1.078 2.156-1.078 2.156-1.078 2.155-1.078 2.156c0 1.078-1.078 1.078-1.078 2.156l-1.078 2.156-1.078 2.156-1.078 2.155-1.077 2.156-1.078 2.156-1.078 2.156-1.078 2.155-1.078 2.156-1.078 2.156V610.088l-1.078 2.156-1.078 2.156-1.078 2.156-1.078 2.156-1.077 2.155v4.312l-1.078 2.156-1.078 2.156-1.078 2.155-1.078 2.156-1.078 2.156v4.311l-1.078 2.156-1.078 2.156-1.078 3.234-1.077 3.233-1.078 3.234-1.078 3.234-1.078 3.233-1.078 3.234-1.078 3.234 1.078 1.078-1.078 3.233-1.078 3.234V680.152l-1.078 3.233-1.078 3.234-1.078 3.234-1.077 3.233-1.078 3.234-1.078 3.234c0 1.078 0 2.155-1.078 3.233l-1.078 3.234c0 1.078 0 2.156-1.078 3.234v3.233l-1.078 3.234-1.078 3.234-1.078 3.233v6.468c0 1.078 0 2.156-1.077 3.234V889.263c0 1.078 0 2.156-1.078 3.234 0 1.078 0 2.156-1.078 2.156 0 1.078-1.078 1.078-1.078 2.155 0 1.078-1.078 1.078-1.078 2.156l-1.078 1.078-1.078 1.078-1.078 1.078s-1.078 0-2.156 1.078c0 0-1.077 0-2.155 1.078h-12.935c-1.078 0-1.078 0-2.156-1.078-1.078 0-2.156-1.078-2.156-1.078-1.078-1.078-2.155-1.078-2.155-2.156-3.234-3.234-5.39-7.545-5.39-12.935v-2.155-10.78-5.389-5.39-5.389-24.791V777.162 742.67v-22.635l1.078-3.234 1.078-3.234v-3.233l1.078-3.234c0-1.078 0-2.156 1.078-3.234l1.078-3.233 1.077-3.234 1.078-3.234 1.078-3.233 1.078-3.234c0-1.078 0-2.156 1.078-3.234l1.078-3.234 1.078-3.233 1.078-3.234 1.078-3.234 1.078-3.233 1.077-3.234 1.078-3.234 1.078-3.233-1.078-1.078 1.078-3.234 1.078-3.234 1.078-3.233 1.078-3.234 1.078-3.234 1.078-3.233 1.078-3.234c0-1.078 0-2.156 1.077-3.234l1.078-2.155 1.078-2.156 1.078-2.156 1.078-2.156 1.078-2.156 1.078-2.155c0-1.078 1.078-2.156 1.078-2.156l1.078-2.156 1.078-2.156 1.077-2.156 1.078-2.155 1.078-2.156 1.078-2.156 1.078-2.156 1.078-2.156 1.078-2.155 1.078-2.156 1.078-2.156 1.077-2.156 1.078-2.155 1.078-2.156 1.078-2.156 1.078-2.156 1.078-2.156 1.078-2.155 1.078-2.156 1.078-2.156 1.078-2.156 1.077-2.156 1.078-2.155 1.078-2.156c0-1.078 1.078-1.078 1.078-2.156l1.078-2.156 1.078-2.156 1.078-2.155 1.078-2.156 1.078-2.156 1.077-2.156 1.078-2.155 1.078-2.156 1.078-2.156 1.078-2.156c0-1.078 1.078-1.078 1.078-2.156l1.078-2.155 1.078-2.156 1.078-2.156 1.078-2.156 1.077-2.156 1.078-2.155 1.078-2.156 1.078-2.156 1.078-2.156 1.078-2.156 1.078-2.155 1.078-2.156 1.078-2.156 1.077-2.156-5.389-2.155 1.078-2.156 1.078-2.156 1.078-2.156 1.078-2.156 1.077-2.155 1.078-1.078 1.078-2.156 1.078-2.156 1.078-2.156 1.078-2.155 1.078-2.156 1.078-2.156 1.078-2.156 1.078-2.156 1.077-2.155 1.078-2.156 1.078-2.156 1.078-2.156 1.078-2.156 1.078-2.155 1.078-2.156 1.078-2.156 1.078-1.078 1.077-2.156 1.078-1.078 1.078-2.155 1.078-2.156 1.078-1.078 1.078-1.078 1.078-1.078 1.078-1.078 1.078-1.078 1.078-1.077 1.077-1.078 1.078-1.078 1.078-1.078 1.078-1.078 1.078-1.078 1.078-1.078 1.078-1.078 1.078-1.078 1.078-1.078c-2.156-4.311-3.234-9.7-4.312-14.012 0-2.156-1.078-4.312-1.078-7.545v-6.468-3.233-4.312-3.234c0-1.078 0-2.156 1.078-3.233 0-1.078 0-2.156 1.078-3.234 0-1.078 0-2.156 1.078-3.234 0-1.078 1.078-2.156 1.078-3.233 0-1.078 1.078-2.156 1.078-2.156 0-1.078 1.077-2.156 1.077-2.156 0-1.078 1.078-1.078 1.078-2.156s1.078-1.078 1.078-2.156 1.078-1.078 1.078-2.155c0-1.078 1.078-1.078 1.078-2.156s1.078-1.078 1.078-2.156 1.078-1.078 1.078-2.156 1.078-1.078 1.078-2.156c0-1.077 1.078-1.077 1.078-2.155 0-1.078 1.078-1.078 1.078-2.156 0 0 1.077-1.078 1.077-2.156s1.078-1.078 1.078-1.078l1.078-1.078 1.078-1.078 1.078-1.078 1.078-1.077 1.078-1.078 1.078-1.078 1.078-1.078 1.077-1.078 1.078-1.078 1.078-1.078 1.078-1.078 1.078-1.078 1.078-1.077 1.078-1.078 1.078-1.078 1.078-1.078s1.078-1.078 2.155-1.078c0 0 1.078 0 1.078-1.078 0 0 1.078 0 1.078-1.078 1.078 0 1.078 0 2.156-1.078 1.078 0 1.078 0 2.156-1.078 1.078 0 1.078 0 2.156-1.078 0 0 1.077 0 2.155-1.077 0 0 1.078 0 2.156-1.078 1.078 0 1.078 0 2.156-1.078H549.726c1.078 0 1.078 0 2.156 1.078 1.078 0 1.078 0 2.156 1.078 1.078 0 1.078 0 2.156 1.077 1.078 0 1.078 0 2.155 1.078 1.078 0 1.078 1.078 2.156 1.078s1.078 1.078 2.156 1.078 1.078 1.078 2.156 1.078 2.156 1.078 2.156 1.078c1.078 0 1.078 1.078 2.155 1.078 1.078 0 2.156 1.078 2.156 1.078 1.078 1.078 2.156 1.078 2.156 2.156 1.078 1.077 2.156 1.077 3.234 2.155 1.078 1.078 2.155 1.078 3.233 2.156l3.234 3.234 3.234 3.233c1.078 1.078 2.156 2.156 3.233 4.312 1.078 2.156 3.234 3.234 4.312 5.39 6.467 8.623 10.779 19.402 11.857 30.18 0 2.156 1.078 4.312 1.078 6.468V417.145c0 1.078 0 2.156-1.078 3.234 0 1.078 0 2.156-1.078 3.234 0 1.078 0 2.155-1.078 3.233 0 1.078 0 2.156-1.078 3.234 0 1.078-1.078 2.156-1.078 2.156 0 1.078-1.078 2.156-1.078 2.156 0 1.077-1.078 1.077-1.078 2.155 0 1.078-1.077 1.078-1.077 2.156s-1.078 1.078-1.078 2.156-1.078 1.078-1.078 2.156-1.078 1.078-1.078 2.156c0 1.077-1.078 1.077-1.078 2.155 0 1.078-1.078 1.078-1.078 2.156s-1.078 1.078-1.078 2.156-1.078 1.078-1.078 2.156-1.078 1.078-1.078 2.155c0 1.078-1.077 1.078-1.077 1.078l-1.078 1.078-1.078 1.078-1.078 1.078-1.078 1.078-1.078 1.078-1.078 1.078-1.078 1.078-1.078 1.078-1.078 1.077c-1.077 0-1.077 1.078-1.077 1.078l-1.078 1.078-1.078 1.078-1.078 1.078-1.078 1.078-1.078 1.078s-1.078 1.078-2.156 1.078l-1.078 1.078s-1.077 0-1.077 1.077c0 0-1.078 0-2.156 1.078 0 0-1.078 0-1.078 1.078-1.078 0-1.078 0-2.156 1.078 0 0-1.078 0-2.156 1.078-1.078 0-1.078 0-2.156 1.078-1.077 0-1.077 0-2.155 1.078H508.766c-1.078 0-1.078 0-2.155-1.078-1.078 0-1.078 0-2.156-1.078-1.078 0-1.078 0-2.156-1.078-1.078 0-1.078 0-2.156-1.078-1.078 0-1.078 0-2.156-1.078-1.078 0-1.078-1.078-2.155-1.078-1.078 0-1.078-1.077-2.156-1.077s-1.078-1.078-2.156-1.078-2.156-1.078-2.156-1.078c-1.078 0-2.156-1.078-2.156-1.078-1.077 0-2.155-1.078-2.155-1.078-1.078-1.078-2.156-1.078-2.156-2.156-1.078-1.078-2.156-1.078-3.234-2.156-1.078-1.077-2.156-1.077-3.234-2.155h-1.077l-1.078 1.078-1.078 1.077-1.078 1.078-1.078 1.078-1.078 1.078-1.078 1.078 5.39 6.467-1.078 1.078-1.078 1.078-1.078 1.078-1.078 1.078-1.078 1.078-1.078 2.156-1.078 1.078-1.077 2.155-2.156 4.312-1.078 2.156-1.078 1.078-1.078 2.155-1.078 2.156-1.078 2.156-1.078 2.156-1.078 2.156-1.077 2.155-2.156-1.078-1.078 2.156-2.156 1.078z m74.375 132.581c-20.48 0-39.882-2.156-58.206-7.545-2.156-1.078-10.78-6.467-10.78-6.467-8.623-16.169 0-23.714 8.624-26.948 1.078 0 2.156-1.078 3.233-1.078 6.468-2.156 17.247 0 17.247 0 12.934 3.234 25.87 4.312 39.882 4.312 106.711 0 192.943-86.232 192.943-192.943 0-106.712-86.232-192.943-192.943-192.943-106.712 0-192.943 86.231-192.943 192.943 0 35.57 9.7 67.907 25.87 97.01 0 1.078 1.077 1.078 1.077 2.156 2.156 3.234 5.39 10.779 3.234 20.48-4.312 9.701-15.09 19.402-32.337 4.312-22.636-35.57-36.649-78.687-36.649-123.958 0-127.192 103.478-231.748 231.748-231.748 127.191 0 231.747 103.478 231.747 231.748 0 126.113-103.478 230.67-231.747 230.67z" fill="#ffffff" p-id="30840"></path></svg>