<?xml version="1.0" standalone="no"?><!DOCTYPE svg PUBLIC "-//W3C//DTD SVG 1.1//EN" "http://www.w3.org/Graphics/SVG/1.1/DTD/svg11.dtd"><svg t="1529550235133" class="icon" style="" viewBox="0 0 1024 1024" version="1.1" xmlns="http://www.w3.org/2000/svg" p-id="29073" xmlns:xlink="http://www.w3.org/1999/xlink" width="24" height="24"><defs><style type="text/css"></style></defs><path d="M689.066667 394.666667v44.8h76.8c6.4 0 10.666667 2.133333 12.8 4.266666 2.133333 2.133333 4.266667 6.4 4.266666 10.666667s-2.133333 6.4-4.266666 10.666667c-2.133333 2.133333-6.4 4.266667-12.8 4.266666h-76.8v51.2h85.333333c6.4 0 10.666667 2.133333 12.8 4.266667 2.133333 2.133333 4.266667 6.4 4.266667 10.666667s-2.133333 6.4-4.266667 10.666666c-2.133333 2.133333-6.4 4.266667-12.8 4.266667h-100.266667c-6.4 0-12.8-2.133333-17.066666-6.4-2.133333-2.133333-6.4-8.533333-6.4-17.066667v-136.533333c0-6.4 2.133333-10.666667 2.133333-12.8 2.133333-2.133333 4.266667-6.4 6.4-6.4 2.133333-2.133333 6.4-2.133333 12.8-2.133333H768c6.4 0 10.666667 2.133333 12.8 4.266666 2.133333 2.133333 4.266667 6.4 4.266667 10.666667s-2.133333 6.4-4.266667 10.666667c-2.133333 2.133333-6.4 4.266667-12.8 4.266666l-78.933333-4.266666z m-177.066667-8.533334l70.4 106.666667V384c0-6.4 2.133333-12.8 4.266667-17.066667 2.133333-2.133333 6.4-6.4 12.8-6.4s8.533333 2.133333 12.8 6.4c2.133333 2.133333 4.266667 8.533333 4.266666 17.066667v142.933333c0 17.066667-6.4 23.466667-19.2 23.466667-2.133333 0-6.4 0-8.533333-2.133333-2.133333-2.133333-4.266667-2.133333-6.4-4.266667l-6.4-6.4c-2.133333-2.133333-4.266667-6.4-6.4-8.533333l-68.266667-106.666667v106.666667c0 6.4-2.133333 12.8-4.266666 17.066666-2.133333 2.133333-6.4 6.4-12.8 6.4s-8.533333-2.133333-12.8-6.4c-2.133333-2.133333-4.266667-8.533333-4.266667-17.066666v-140.8c0-6.4 0-10.666667 2.133333-14.933334 2.133333-4.266667 4.266667-6.4 6.4-8.533333 2.133333-2.133333 6.4-2.133333 12.8-2.133333 2.133333 0 6.4 0 8.533334 2.133333 2.133333 2.133333 4.266667 2.133333 6.4 4.266667 2.133333 2.133333 2.133333 4.266667 6.4 6.4-2.133333 4.266667 0 8.533333 2.133333 10.666666z m-119.466667 142.933334v-142.933334c0-6.4 2.133333-12.8 4.266667-17.066666 2.133333-4.266667 6.4-6.4 12.8-6.4s10.666667 2.133333 12.8 6.4c2.133333 4.266667 4.266667 8.533333 4.266667 17.066666v142.933334c0 6.4-2.133333 12.8-4.266667 17.066666-2.133333 4.266667-6.4 6.4-12.8 6.4s-10.666667-2.133333-12.8-6.4c-2.133333-2.133333-4.266667-8.533333-4.266667-17.066666z m-104.533333-142.933334v132.266667H362.666667c6.4 0 10.666667 2.133333 12.8 4.266667 2.133333 2.133333 4.266667 6.4 4.266666 10.666666s-2.133333 8.533333-4.266666 10.666667c-2.133333 2.133333-6.4 4.266667-12.8 4.266667h-87.466667c-6.4 0-12.8-2.133333-17.066667-6.4-2.133333-2.133333-6.4-8.533333-6.4-17.066667V384c0-6.4 2.133333-12.8 4.266667-17.066667 2.133333-4.266667 6.4-6.4 12.8-6.4s10.666667 2.133333 12.8 6.4c6.4 6.4 6.4 12.8 6.4 19.2z m192 398.933334s6.4 17.066667 2.133333 51.2c-2.133333 17.066667-17.066667 34.133333-17.066666 44.8 2.133333 12.8 17.066667 21.333333 25.6 17.066666 181.333333-85.333333 322.133333-221.866667 328.533333-228.266666 61.866667-57.6 98.133333-134.4 98.133333-215.466667 0-181.333333-181.333333-330.666667-405.333333-330.666667s-405.333333 149.333333-405.333333 330.666667c0 174.933333 164.266667 315.733333 373.333333 330.666667z" p-id="29074" fill="#ffffff"></path></svg>