<?xml version="1.0" standalone="no"?><!DOCTYPE svg PUBLIC "-//W3C//DTD SVG 1.1//EN" "http://www.w3.org/Graphics/SVG/1.1/DTD/svg11.dtd"><svg t="1529550177647" class="icon" style="" viewBox="0 0 1137 1024" version="1.1" xmlns="http://www.w3.org/2000/svg" p-id="25950" xmlns:xlink="http://www.w3.org/1999/xlink" width="26.6484375" height="24"><defs><style type="text/css"></style></defs><path d="M0 455.623111C0 392.476444 51.086222 341.333333 113.208889 341.333333h911.36C1087.032889 341.333333 1137.777778 392.647111 1137.777778 455.623111v454.087111c0 63.146667-51.086222 114.289778-113.208889 114.289778H113.208889C50.744889 1024 0 972.686222 0 909.710222V455.68z m663.722667 171.633778l-102.115556-48.583111c-38.286222-18.204444-68.551111 1.308444-68.551111 43.178666v76.003556c0 42.211556 30.72 61.155556 68.551111 43.178667l102.115556-48.583111c38.286222-18.204444 37.888-47.217778 0-65.194667zM58.936889 256c0-15.701333 12.856889-28.444444 28.330667-28.444444H1051.306667c15.644444 0 28.330667 13.198222 28.330666 28.444444 0 15.701333-12.913778 28.444444-28.330666 28.444444H87.267556a28.728889 28.728889 0 0 1-28.330667-28.444444z m63.715555-113.777778a28.444444 28.444444 0 0 1 28.728889-28.444444h835.697778c15.872 0 28.728889 13.198222 28.728889 28.444444a28.444444 28.444444 0 0 1-28.728889 28.444445H151.381333a28.899556 28.899556 0 0 1-28.672-28.444445z m63.829334-113.777778c0-15.701333 13.312-28.444444 28.16-28.444444H923.875556c15.530667 0 28.16 13.198222 28.16 28.444444 0 15.701333-13.312 28.444444-28.16 28.444445H214.641778a28.615111 28.615111 0 0 1-28.16-28.444445z" p-id="25951" fill="#ffffff"></path></svg>