<?xml version="1.0" standalone="no"?><!DOCTYPE svg PUBLIC "-//W3C//DTD SVG 1.1//EN" "http://www.w3.org/Graphics/SVG/1.1/DTD/svg11.dtd"><svg t="1529460825598" class="icon" style="" viewBox="0 0 1024 1024" version="1.1" xmlns="http://www.w3.org/2000/svg" p-id="52487" xmlns:xlink="http://www.w3.org/1999/xlink" width="16" height="16"><defs><style type="text/css"></style></defs><path d="M872.597333 106.666667H151.402667A44.736 44.736 0 0 0 106.666667 151.402667v721.194666C106.666667 897.28 126.698667 917.333333 151.402667 917.333333h388.266666V603.392h-105.642666V481.066667h105.642666V390.826667c0-104.704 63.957333-161.706667 157.354667-161.706667 44.736 0 83.2 3.306667 94.4 4.8v109.44l-64.768 0.021333c-50.816 0-60.650667 24.128-60.650667 59.562667v78.101333h121.173334l-15.786667 122.346667h-105.386667V917.333333h206.592A44.736 44.736 0 0 0 917.333333 872.597333V151.402667A44.736 44.736 0 0 0 872.597333 106.666667" p-id="52488" fill="#ffffff"></path></svg>