<?xml version="1.0" standalone="no"?><!DOCTYPE svg PUBLIC "-//W3C//DTD SVG 1.1//EN" "http://www.w3.org/Graphics/SVG/1.1/DTD/svg11.dtd"><svg t="1529461446443" class="icon" style="" viewBox="0 0 1024 1024" version="1.1" xmlns="http://www.w3.org/2000/svg" p-id="66783" xmlns:xlink="http://www.w3.org/1999/xlink" width="16" height="16"><defs><style type="text/css"></style></defs><path d="M758.1229 876.518041c0.166806 4.672416 0 21.429055-5.587481 24.177656-9.756601 4.925173-21.675537-3.1262-31.267379 2.753717-6.084828 3.711532-8.839681 10.172687-13.340366 15.335267-13.254405 15.179724-28.011085 29.101805-41.26549 44.312228-2.33528 2.753717-3.669726 7.04751-3.172379 10.719132 0 0.207731 1.585166 3.166109 0.417526 3.457752-10.421777 2.50403-23.514493-13.882172-25.015745-23.008017-1.994505-12.130272 8.927689-20.174482 12.679283-30.67872 11.087977-31.139208 26.008393-89.335654 20.591811-121.807207-7.835777-46.940079-45.277015-20.340257-52.694242-77.035514-1.414267-11.090593-3.330998-24.467251 1.585166-35.100426 4.840437-10.627035 17.010093-15.505136 21.678607-26.260084 10.337863-23.508413-13.090669-55.568596 25.927548-59.861366l3.751594-0.079818 2.836721-0.048095 2.000646-0.079818 2.919612-0.12382 5.08604-1.629103c4.915141-1.333368 7.667948-1.954515 12.674167-2.208295 5.921092-0.249687 11.669239 1.918699 17.421479 2.667759 13.340366 1.710968 26.513927-0.079818 38.440026 7.255241 22.505472 13.798261 46.186771 27.427676 65.445159 45.604664l-11.422612 18.549471c1.666011-2.376117 4.333879-2.920516 7.090779-2.581802 25.091473 2.874467 67.699595 5.873778 84.039395 30.973432 6.251634 25.131377-42.104635 52.599985-43.270229 82.70156-0.167829 3.791349 4.331833 9.29162 0.497347 12.463869-9.755578 8.084119-23.759073 7.66661-33.515675 15.714913C798.641345 832.205812 793.469344 872.101451 758.1229 876.518041zM171.998213 214.721363c-44.023413 23.388686-27.847349-16.9613-10.087142-33.930787l-2.50311-13.798261c53.527247-46.729278 179.42465-85.664032 246.038473-79.079056-6.670183-25.843598-17.76123-16.876366-37.59781-27.635407 28.930052 0.835018 59.108588 1.704828 87.872857-2.50096 6.502354-0.079818 34.435664 47.356564 61.534946 41.436738l31.345153-21.344121c20.26127 0 39.186046 5.747911 59.02672 10.04375-0.330541 30.55797-34.177781 33.345456-51.441664 60.238966l0 7.54586 55.197351 37.682227c31.100573-13.426801 21.67656 29.761837 26.342004 35.138288 19.59814 22.13309 38.687676-35.636638 42.688967-48.976458l-22.59041-37.642319 42.685897 10.04068 28.929028 31.350009c9.589795 0.62524 21.596739-0.12382 30.097692-5.001921 8.004629 19.548218 26.680732 39.099507 45.189007 48.983621 5.841271 39.346123 57.695344 65.317635-3.750571 53.979402l-1.253601-25.137517-50.188062 0c15.589685 2.541893 24.840752 51.567469 31.3472 64.028269l-45.189007 0c4.253035 27.514657-49.943482 27.595498-54.023571 51.485605 0.165782 29.513174-16.17504 11.337209-35.101864 30.136368l8.752697 46.435589-86.621302-40.144302c-57.948111 15.382339-52.775086 49.440016-25.101706 94.170776l18.850073-11.341303c-1.837933-1.791809 12.501221-12.58769 13.835667-2.499937l0 36.434817 64.031916 12.546757 0 38.887682 33.849286 11.304464-46.438515-7.504928c-22.513659-59.693544-174.419455-50.689473-164.497071-102.967116-10.173104-10.961656-72.038591-81.369216-84.125356-75.323523-110.141936-61.154825 15.671553-161.53093-111.718915-209.680557l-85.377934 0-2.501063 7.54586L171.998213 214.721363zM0 512.229221c0 282.919605 229.280125 512.230244 512.250209 512.230244 282.88617 0 512.251232-229.310639 512.251232-512.230244 0-282.874579-229.366086-512.229221-512.251232-512.229221C229.280125 0 0 229.354642 0 512.229221z" p-id="66784" fill="#ffffff"></path></svg>