<?xml version="1.0" standalone="no"?><!DOCTYPE svg PUBLIC "-//W3C//DTD SVG 1.1//EN" "http://www.w3.org/Graphics/SVG/1.1/DTD/svg11.dtd"><svg t="1529461854371" class="icon" style="" viewBox="0 0 1024 1024" version="1.1" xmlns="http://www.w3.org/2000/svg" p-id="70979" xmlns:xlink="http://www.w3.org/1999/xlink" width="16" height="16"><defs><style type="text/css"></style></defs><path d="M504.454181 388.970131c-11.739618 0-21.271072 9.530447-21.271072 21.267045l0 244.610788c0 11.740625 9.531454 21.271072 21.271072 21.271072 11.737604 0 21.268052-9.530447 21.268052-21.271072L525.722233 410.237176C525.722233 398.500578 516.191786 388.970131 504.454181 388.970131z" p-id="70980" fill="#ffffff"></path><path d="M504.499493 16.446944c-278.220593 0-503.708058 225.527741-503.708058 503.691947 0 278.198441 225.486458 503.727189 503.708058 503.727189 278.083653 0 503.642608-225.527741 503.642608-503.727189C1008.141094 242.010934 782.579118 16.446944 504.499493 16.446944zM752.604275 704.508995l-155.981152 0 0-0.020138c-29.070633 0-63.357085 8.56683-70.90089 28.362772-0.468215 0.012083-0.947507 0.012083-1.443916 0.027187-0.526616 1.47513-1.333155 2.694504-2.143721 3.996444-0.495402 0.82567-0.979728 1.620126-1.588911 2.35618-0.821642 0.979728-1.687589 1.844668-2.663289 2.66631-1.066323 0.904209-2.214205 1.644292-3.44969 2.324966-0.849836 0.456132-1.616098 0.963617-2.537425 1.322079-2.325973 0.877023-4.778817 1.487213-7.430023 1.487213s-5.105057-0.606163-7.434051-1.487213c-0.904209-0.342351-1.684568-0.86494-2.536418-1.322079-1.232464-0.676647-2.383367-1.41975-3.431565-2.308855-0.989797-0.837753-1.870847-1.691617-2.682421-2.66631-0.608176-0.739075-1.076392-1.533531-1.572801-2.34007-0.837753-1.305968-1.627174-2.552529-2.156811-4.011548-0.482312-0.016111-0.96261-0.016111-1.446936-0.031214-7.543805-19.791915-41.834284-28.358745-70.896862-28.358745L256.328254 704.505975 256.328254 293.282023l169.594638 0c32.072246 0 60.293044 14.533806 78.56049 36.756413 18.261404-22.207503 46.478174-36.756413 78.554448-36.756413l169.566445 0L752.604275 704.508995z" p-id="70981" fill="#ffffff"></path></svg>