<?xml version="1.0" standalone="no"?><!DOCTYPE svg PUBLIC "-//W3C//DTD SVG 1.1//EN" "http://www.w3.org/Graphics/SVG/1.1/DTD/svg11.dtd"><svg t="1529460968907" class="icon" style="" viewBox="0 0 1024 1024" version="1.1" xmlns="http://www.w3.org/2000/svg" p-id="53971" xmlns:xlink="http://www.w3.org/1999/xlink" width="16" height="16"><defs><style type="text/css"></style></defs><path d="M410.624 788.48l-136.704 132.608V788.48h-25.6c-129.024 0-233.472-104.96-233.472-233.984v-217.6c0-129.024 104.448-233.984 233.472-233.984h526.336c129.024 0 233.472 104.96 233.472 233.984v217.6c0 129.024-104.448 233.984-233.472 233.984h-364.032z m-130.048-364.032h-23.04v-97.28H174.08v272.384h83.456V496.64h23.04v-72.192z m97.792-97.28h-83.456v272.384h83.456v-272.384z m165.376-7.168c-41.984 0-77.312 13.824-106.496 41.472-29.184 27.648-43.52 61.44-43.52 101.376 0 39.424 14.336 73.216 43.008 101.376 28.672 28.16 63.488 41.984 104.448 41.984 40.96 0 75.776-13.824 104.448-41.984 28.672-27.648 43.008-61.44 43.008-101.376 0-38.912-14.336-72.704-42.496-100.864-28.672-27.648-62.464-41.984-102.4-41.984z m282.624 85.504h64v-78.336h-210.944v78.336h64v194.56h83.456v-194.56z m-285.184-5.12c17.408 0 31.744 6.144 44.032 18.432 11.776 12.288 17.92 27.136 17.92 44.544 0 17.408-6.144 32.256-17.92 44.544-11.776 12.288-26.624 18.432-44.032 18.432-16.896 0-31.744-6.144-43.52-18.432-12.288-12.288-18.432-27.136-18.432-44.544 0-17.408 6.144-32.256 17.92-44.544 12.288-12.288 27.136-18.432 44.032-18.432z" p-id="53972" fill="#ffffff"></path></svg>